%TF.GenerationSoftware,KiCad,Pcbnew,(5.1.7)-1*%
%TF.CreationDate,2020-11-26T18:08:09+01:00*%
%TF.ProjectId,Sleep_Monitor_2020__V2_0,536c6565-705f-44d6-9f6e-69746f725f32,rev?*%
%TF.SameCoordinates,Original*%
%TF.FileFunction,Soldermask,Top*%
%TF.FilePolarity,Negative*%
%FSLAX46Y46*%
G04 Gerber Fmt 4.6, Leading zero omitted, Abs format (unit mm)*
G04 Created by KiCad (PCBNEW (5.1.7)-1) date 2020-11-26 18:08:09*
%MOMM*%
%LPD*%
G01*
G04 APERTURE LIST*
%ADD10O,2.600000X2.000000*%
%ADD11C,0.100000*%
%ADD12C,0.650000*%
%ADD13R,0.300000X1.200000*%
%ADD14R,0.200000X1.000000*%
%ADD15O,1.700000X1.700000*%
%ADD16R,1.700000X1.700000*%
%ADD17C,3.250000*%
%ADD18R,4.400000X1.800000*%
%ADD19O,4.000000X1.800000*%
%ADD20O,1.800000X4.000000*%
%ADD21R,4.840000X6.350000*%
%ADD22C,3.450000*%
%ADD23C,2.390000*%
%ADD24C,1.600000*%
%ADD25C,2.200000*%
%ADD26C,1.720000*%
%ADD27R,0.599999X0.399999*%
%ADD28R,1.500000X2.400000*%
%ADD29R,0.400000X0.400000*%
%ADD30R,0.900000X0.700000*%
%ADD31R,1.060000X0.650000*%
%ADD32R,0.800000X0.800000*%
%ADD33R,2.100000X3.900000*%
%ADD34R,0.650000X1.250000*%
%ADD35R,0.725000X1.250000*%
%ADD36R,0.750000X1.250000*%
%ADD37C,2.100000*%
%ADD38C,1.750000*%
%ADD39R,0.650000X0.400000*%
%ADD40R,0.700000X1.200000*%
%ADD41R,1.000000X1.200000*%
%ADD42R,1.000000X0.800000*%
%ADD43R,1.000000X2.800000*%
%ADD44R,1.300000X1.900000*%
%ADD45O,0.760000X2.400000*%
%ADD46R,0.760000X2.400000*%
%ADD47R,0.500000X0.500000*%
%ADD48R,0.450000X0.700000*%
%ADD49R,1.400000X1.400000*%
%ADD50C,1.400000*%
%ADD51R,0.990000X0.405000*%
%ADD52R,0.450000X1.450000*%
%ADD53R,0.900000X1.200000*%
%ADD54R,5.699989X1.699999*%
%ADD55R,0.900000X0.800000*%
%ADD56R,0.800000X0.900000*%
%ADD57R,0.240000X0.600000*%
%ADD58R,2.600000X2.700000*%
%ADD59R,0.200000X0.450000*%
%ADD60R,2.800000X0.300000*%
G04 APERTURE END LIST*
D10*
%TO.C,J5*%
X139400000Y-80900000D03*
X139400000Y-77400000D03*
X139400000Y-73900000D03*
X139400000Y-70400000D03*
X139400000Y-66900000D03*
X139400000Y-63400000D03*
X139400000Y-59900000D03*
X139400000Y-56400000D03*
X139400000Y-52900000D03*
X139400000Y-49400000D03*
X139400000Y-45900000D03*
G36*
G01*
X138350000Y-41400000D02*
X140450000Y-41400000D01*
G75*
G02*
X140700000Y-41650000I0J-250000D01*
G01*
X140700000Y-43150000D01*
G75*
G02*
X140450000Y-43400000I-250000J0D01*
G01*
X138350000Y-43400000D01*
G75*
G02*
X138100000Y-43150000I0J250000D01*
G01*
X138100000Y-41650000D01*
G75*
G02*
X138350000Y-41400000I250000J0D01*
G01*
G37*
%TD*%
%TO.C,C16*%
G36*
G01*
X77836500Y-50250000D02*
X78311500Y-50250000D01*
G75*
G02*
X78549000Y-50487500I0J-237500D01*
G01*
X78549000Y-51062500D01*
G75*
G02*
X78311500Y-51300000I-237500J0D01*
G01*
X77836500Y-51300000D01*
G75*
G02*
X77599000Y-51062500I0J237500D01*
G01*
X77599000Y-50487500D01*
G75*
G02*
X77836500Y-50250000I237500J0D01*
G01*
G37*
G36*
G01*
X77836500Y-48500000D02*
X78311500Y-48500000D01*
G75*
G02*
X78549000Y-48737500I0J-237500D01*
G01*
X78549000Y-49312500D01*
G75*
G02*
X78311500Y-49550000I-237500J0D01*
G01*
X77836500Y-49550000D01*
G75*
G02*
X77599000Y-49312500I0J237500D01*
G01*
X77599000Y-48737500D01*
G75*
G02*
X77836500Y-48500000I237500J0D01*
G01*
G37*
%TD*%
%TO.C,R21*%
G36*
G01*
X79753500Y-49550000D02*
X79278500Y-49550000D01*
G75*
G02*
X79041000Y-49312500I0J237500D01*
G01*
X79041000Y-48737500D01*
G75*
G02*
X79278500Y-48500000I237500J0D01*
G01*
X79753500Y-48500000D01*
G75*
G02*
X79991000Y-48737500I0J-237500D01*
G01*
X79991000Y-49312500D01*
G75*
G02*
X79753500Y-49550000I-237500J0D01*
G01*
G37*
G36*
G01*
X79753500Y-51300000D02*
X79278500Y-51300000D01*
G75*
G02*
X79041000Y-51062500I0J237500D01*
G01*
X79041000Y-50487500D01*
G75*
G02*
X79278500Y-50250000I237500J0D01*
G01*
X79753500Y-50250000D01*
G75*
G02*
X79991000Y-50487500I0J-237500D01*
G01*
X79991000Y-51062500D01*
G75*
G02*
X79753500Y-51300000I-237500J0D01*
G01*
G37*
%TD*%
%TO.C,R15*%
G36*
G01*
X76652500Y-46180000D02*
X77127500Y-46180000D01*
G75*
G02*
X77365000Y-46417500I0J-237500D01*
G01*
X77365000Y-46992500D01*
G75*
G02*
X77127500Y-47230000I-237500J0D01*
G01*
X76652500Y-47230000D01*
G75*
G02*
X76415000Y-46992500I0J237500D01*
G01*
X76415000Y-46417500D01*
G75*
G02*
X76652500Y-46180000I237500J0D01*
G01*
G37*
G36*
G01*
X76652500Y-44430000D02*
X77127500Y-44430000D01*
G75*
G02*
X77365000Y-44667500I0J-237500D01*
G01*
X77365000Y-45242500D01*
G75*
G02*
X77127500Y-45480000I-237500J0D01*
G01*
X76652500Y-45480000D01*
G75*
G02*
X76415000Y-45242500I0J237500D01*
G01*
X76415000Y-44667500D01*
G75*
G02*
X76652500Y-44430000I237500J0D01*
G01*
G37*
%TD*%
%TO.C,R95*%
G36*
G01*
X110852500Y-70580000D02*
X111327500Y-70580000D01*
G75*
G02*
X111565000Y-70817500I0J-237500D01*
G01*
X111565000Y-71392500D01*
G75*
G02*
X111327500Y-71630000I-237500J0D01*
G01*
X110852500Y-71630000D01*
G75*
G02*
X110615000Y-71392500I0J237500D01*
G01*
X110615000Y-70817500D01*
G75*
G02*
X110852500Y-70580000I237500J0D01*
G01*
G37*
G36*
G01*
X110852500Y-68830000D02*
X111327500Y-68830000D01*
G75*
G02*
X111565000Y-69067500I0J-237500D01*
G01*
X111565000Y-69642500D01*
G75*
G02*
X111327500Y-69880000I-237500J0D01*
G01*
X110852500Y-69880000D01*
G75*
G02*
X110615000Y-69642500I0J237500D01*
G01*
X110615000Y-69067500D01*
G75*
G02*
X110852500Y-68830000I237500J0D01*
G01*
G37*
%TD*%
%TO.C,R91*%
G36*
G01*
X112252500Y-70580000D02*
X112727500Y-70580000D01*
G75*
G02*
X112965000Y-70817500I0J-237500D01*
G01*
X112965000Y-71392500D01*
G75*
G02*
X112727500Y-71630000I-237500J0D01*
G01*
X112252500Y-71630000D01*
G75*
G02*
X112015000Y-71392500I0J237500D01*
G01*
X112015000Y-70817500D01*
G75*
G02*
X112252500Y-70580000I237500J0D01*
G01*
G37*
G36*
G01*
X112252500Y-68830000D02*
X112727500Y-68830000D01*
G75*
G02*
X112965000Y-69067500I0J-237500D01*
G01*
X112965000Y-69642500D01*
G75*
G02*
X112727500Y-69880000I-237500J0D01*
G01*
X112252500Y-69880000D01*
G75*
G02*
X112015000Y-69642500I0J237500D01*
G01*
X112015000Y-69067500D01*
G75*
G02*
X112252500Y-68830000I237500J0D01*
G01*
G37*
%TD*%
%TO.C,R26*%
G36*
G01*
X40780000Y-95732500D02*
X40780000Y-96207500D01*
G75*
G02*
X40542500Y-96445000I-237500J0D01*
G01*
X39967500Y-96445000D01*
G75*
G02*
X39730000Y-96207500I0J237500D01*
G01*
X39730000Y-95732500D01*
G75*
G02*
X39967500Y-95495000I237500J0D01*
G01*
X40542500Y-95495000D01*
G75*
G02*
X40780000Y-95732500I0J-237500D01*
G01*
G37*
G36*
G01*
X42530000Y-95732500D02*
X42530000Y-96207500D01*
G75*
G02*
X42292500Y-96445000I-237500J0D01*
G01*
X41717500Y-96445000D01*
G75*
G02*
X41480000Y-96207500I0J237500D01*
G01*
X41480000Y-95732500D01*
G75*
G02*
X41717500Y-95495000I237500J0D01*
G01*
X42292500Y-95495000D01*
G75*
G02*
X42530000Y-95732500I0J-237500D01*
G01*
G37*
%TD*%
%TO.C,R25*%
G36*
G01*
X36050000Y-95732500D02*
X36050000Y-96207500D01*
G75*
G02*
X35812500Y-96445000I-237500J0D01*
G01*
X35237500Y-96445000D01*
G75*
G02*
X35000000Y-96207500I0J237500D01*
G01*
X35000000Y-95732500D01*
G75*
G02*
X35237500Y-95495000I237500J0D01*
G01*
X35812500Y-95495000D01*
G75*
G02*
X36050000Y-95732500I0J-237500D01*
G01*
G37*
G36*
G01*
X37800000Y-95732500D02*
X37800000Y-96207500D01*
G75*
G02*
X37562500Y-96445000I-237500J0D01*
G01*
X36987500Y-96445000D01*
G75*
G02*
X36750000Y-96207500I0J237500D01*
G01*
X36750000Y-95732500D01*
G75*
G02*
X36987500Y-95495000I237500J0D01*
G01*
X37562500Y-95495000D01*
G75*
G02*
X37800000Y-95732500I0J-237500D01*
G01*
G37*
%TD*%
%TO.C,D14*%
G36*
G01*
X41450000Y-94637500D02*
X41450000Y-94162500D01*
G75*
G02*
X41687500Y-93925000I237500J0D01*
G01*
X42262500Y-93925000D01*
G75*
G02*
X42500000Y-94162500I0J-237500D01*
G01*
X42500000Y-94637500D01*
G75*
G02*
X42262500Y-94875000I-237500J0D01*
G01*
X41687500Y-94875000D01*
G75*
G02*
X41450000Y-94637500I0J237500D01*
G01*
G37*
G36*
G01*
X39700000Y-94637500D02*
X39700000Y-94162500D01*
G75*
G02*
X39937500Y-93925000I237500J0D01*
G01*
X40512500Y-93925000D01*
G75*
G02*
X40750000Y-94162500I0J-237500D01*
G01*
X40750000Y-94637500D01*
G75*
G02*
X40512500Y-94875000I-237500J0D01*
G01*
X39937500Y-94875000D01*
G75*
G02*
X39700000Y-94637500I0J237500D01*
G01*
G37*
%TD*%
%TO.C,D13*%
G36*
G01*
X36795000Y-94637500D02*
X36795000Y-94162500D01*
G75*
G02*
X37032500Y-93925000I237500J0D01*
G01*
X37607500Y-93925000D01*
G75*
G02*
X37845000Y-94162500I0J-237500D01*
G01*
X37845000Y-94637500D01*
G75*
G02*
X37607500Y-94875000I-237500J0D01*
G01*
X37032500Y-94875000D01*
G75*
G02*
X36795000Y-94637500I0J237500D01*
G01*
G37*
G36*
G01*
X35045000Y-94637500D02*
X35045000Y-94162500D01*
G75*
G02*
X35282500Y-93925000I237500J0D01*
G01*
X35857500Y-93925000D01*
G75*
G02*
X36095000Y-94162500I0J-237500D01*
G01*
X36095000Y-94637500D01*
G75*
G02*
X35857500Y-94875000I-237500J0D01*
G01*
X35282500Y-94875000D01*
G75*
G02*
X35045000Y-94637500I0J237500D01*
G01*
G37*
%TD*%
D11*
%TO.C,JP6*%
G36*
X131170000Y-50869398D02*
G01*
X131145466Y-50869398D01*
X131096635Y-50864588D01*
X131048510Y-50855016D01*
X131001555Y-50840772D01*
X130956222Y-50821995D01*
X130912949Y-50798864D01*
X130872150Y-50771604D01*
X130834221Y-50740476D01*
X130799524Y-50705779D01*
X130768396Y-50667850D01*
X130741136Y-50627051D01*
X130718005Y-50583778D01*
X130699228Y-50538445D01*
X130684984Y-50491490D01*
X130675412Y-50443365D01*
X130670602Y-50394534D01*
X130670602Y-50370000D01*
X130670000Y-50370000D01*
X130670000Y-49870000D01*
X130670602Y-49870000D01*
X130670602Y-49845466D01*
X130675412Y-49796635D01*
X130684984Y-49748510D01*
X130699228Y-49701555D01*
X130718005Y-49656222D01*
X130741136Y-49612949D01*
X130768396Y-49572150D01*
X130799524Y-49534221D01*
X130834221Y-49499524D01*
X130872150Y-49468396D01*
X130912949Y-49441136D01*
X130956222Y-49418005D01*
X131001555Y-49399228D01*
X131048510Y-49384984D01*
X131096635Y-49375412D01*
X131145466Y-49370602D01*
X131170000Y-49370602D01*
X131170000Y-49370000D01*
X131670000Y-49370000D01*
X131670000Y-50870000D01*
X131170000Y-50870000D01*
X131170000Y-50869398D01*
G37*
G36*
X131970000Y-49370000D02*
G01*
X132470000Y-49370000D01*
X132470000Y-49370602D01*
X132494534Y-49370602D01*
X132543365Y-49375412D01*
X132591490Y-49384984D01*
X132638445Y-49399228D01*
X132683778Y-49418005D01*
X132727051Y-49441136D01*
X132767850Y-49468396D01*
X132805779Y-49499524D01*
X132840476Y-49534221D01*
X132871604Y-49572150D01*
X132898864Y-49612949D01*
X132921995Y-49656222D01*
X132940772Y-49701555D01*
X132955016Y-49748510D01*
X132964588Y-49796635D01*
X132969398Y-49845466D01*
X132969398Y-49870000D01*
X132970000Y-49870000D01*
X132970000Y-50370000D01*
X132969398Y-50370000D01*
X132969398Y-50394534D01*
X132964588Y-50443365D01*
X132955016Y-50491490D01*
X132940772Y-50538445D01*
X132921995Y-50583778D01*
X132898864Y-50627051D01*
X132871604Y-50667850D01*
X132840476Y-50705779D01*
X132805779Y-50740476D01*
X132767850Y-50771604D01*
X132727051Y-50798864D01*
X132683778Y-50821995D01*
X132638445Y-50840772D01*
X132591490Y-50855016D01*
X132543365Y-50864588D01*
X132494534Y-50869398D01*
X132470000Y-50869398D01*
X132470000Y-50870000D01*
X131970000Y-50870000D01*
X131970000Y-49370000D01*
G37*
%TD*%
%TO.C,JP5*%
G36*
X131170000Y-53369398D02*
G01*
X131145466Y-53369398D01*
X131096635Y-53364588D01*
X131048510Y-53355016D01*
X131001555Y-53340772D01*
X130956222Y-53321995D01*
X130912949Y-53298864D01*
X130872150Y-53271604D01*
X130834221Y-53240476D01*
X130799524Y-53205779D01*
X130768396Y-53167850D01*
X130741136Y-53127051D01*
X130718005Y-53083778D01*
X130699228Y-53038445D01*
X130684984Y-52991490D01*
X130675412Y-52943365D01*
X130670602Y-52894534D01*
X130670602Y-52870000D01*
X130670000Y-52870000D01*
X130670000Y-52370000D01*
X130670602Y-52370000D01*
X130670602Y-52345466D01*
X130675412Y-52296635D01*
X130684984Y-52248510D01*
X130699228Y-52201555D01*
X130718005Y-52156222D01*
X130741136Y-52112949D01*
X130768396Y-52072150D01*
X130799524Y-52034221D01*
X130834221Y-51999524D01*
X130872150Y-51968396D01*
X130912949Y-51941136D01*
X130956222Y-51918005D01*
X131001555Y-51899228D01*
X131048510Y-51884984D01*
X131096635Y-51875412D01*
X131145466Y-51870602D01*
X131170000Y-51870602D01*
X131170000Y-51870000D01*
X131670000Y-51870000D01*
X131670000Y-53370000D01*
X131170000Y-53370000D01*
X131170000Y-53369398D01*
G37*
G36*
X131970000Y-51870000D02*
G01*
X132470000Y-51870000D01*
X132470000Y-51870602D01*
X132494534Y-51870602D01*
X132543365Y-51875412D01*
X132591490Y-51884984D01*
X132638445Y-51899228D01*
X132683778Y-51918005D01*
X132727051Y-51941136D01*
X132767850Y-51968396D01*
X132805779Y-51999524D01*
X132840476Y-52034221D01*
X132871604Y-52072150D01*
X132898864Y-52112949D01*
X132921995Y-52156222D01*
X132940772Y-52201555D01*
X132955016Y-52248510D01*
X132964588Y-52296635D01*
X132969398Y-52345466D01*
X132969398Y-52370000D01*
X132970000Y-52370000D01*
X132970000Y-52870000D01*
X132969398Y-52870000D01*
X132969398Y-52894534D01*
X132964588Y-52943365D01*
X132955016Y-52991490D01*
X132940772Y-53038445D01*
X132921995Y-53083778D01*
X132898864Y-53127051D01*
X132871604Y-53167850D01*
X132840476Y-53205779D01*
X132805779Y-53240476D01*
X132767850Y-53271604D01*
X132727051Y-53298864D01*
X132683778Y-53321995D01*
X132638445Y-53340772D01*
X132591490Y-53355016D01*
X132543365Y-53364588D01*
X132494534Y-53369398D01*
X132470000Y-53369398D01*
X132470000Y-53370000D01*
X131970000Y-53370000D01*
X131970000Y-51870000D01*
G37*
%TD*%
%TO.C,C60*%
G36*
G01*
X83594165Y-72037500D02*
X83119165Y-72037500D01*
G75*
G02*
X82881665Y-71800000I0J237500D01*
G01*
X82881665Y-71225000D01*
G75*
G02*
X83119165Y-70987500I237500J0D01*
G01*
X83594165Y-70987500D01*
G75*
G02*
X83831665Y-71225000I0J-237500D01*
G01*
X83831665Y-71800000D01*
G75*
G02*
X83594165Y-72037500I-237500J0D01*
G01*
G37*
G36*
G01*
X83594165Y-73787500D02*
X83119165Y-73787500D01*
G75*
G02*
X82881665Y-73550000I0J237500D01*
G01*
X82881665Y-72975000D01*
G75*
G02*
X83119165Y-72737500I237500J0D01*
G01*
X83594165Y-72737500D01*
G75*
G02*
X83831665Y-72975000I0J-237500D01*
G01*
X83831665Y-73550000D01*
G75*
G02*
X83594165Y-73787500I-237500J0D01*
G01*
G37*
%TD*%
D12*
%TO.C,J3*%
X61200000Y-38380000D03*
X62800000Y-38380000D03*
X60400000Y-38380000D03*
X63600000Y-38380000D03*
X64400000Y-38380000D03*
X59600000Y-38380000D03*
X61600000Y-39080000D03*
X62400000Y-39080000D03*
X63200000Y-39080000D03*
X60800000Y-39080000D03*
X60000000Y-39080000D03*
X64000000Y-39080000D03*
X64800000Y-39080000D03*
X59200000Y-39080000D03*
D13*
X59250000Y-40330000D03*
X59750000Y-40330000D03*
X60250000Y-40330000D03*
X60750000Y-40330000D03*
X61250000Y-40330000D03*
X61750000Y-40330000D03*
X62250000Y-40330000D03*
X62750000Y-40330000D03*
X63250000Y-40330000D03*
X63750000Y-40330000D03*
X64250000Y-40330000D03*
X64750000Y-40330000D03*
D14*
X62000000Y-35750000D03*
X62000000Y-32650000D03*
G36*
G01*
X58230000Y-32900000D02*
X58230000Y-33500000D01*
G75*
G02*
X57730000Y-34000000I-500000J0D01*
G01*
X57730000Y-34000000D01*
G75*
G02*
X57230000Y-33500000I0J500000D01*
G01*
X57230000Y-32900000D01*
G75*
G02*
X57730000Y-32400000I500000J0D01*
G01*
X57730000Y-32400000D01*
G75*
G02*
X58230000Y-32900000I0J-500000D01*
G01*
G37*
G36*
G01*
X66770000Y-32900000D02*
X66770000Y-33500000D01*
G75*
G02*
X66270000Y-34000000I-500000J0D01*
G01*
X66270000Y-34000000D01*
G75*
G02*
X65770000Y-33500000I0J500000D01*
G01*
X65770000Y-32900000D01*
G75*
G02*
X66270000Y-32400000I500000J0D01*
G01*
X66270000Y-32400000D01*
G75*
G02*
X66770000Y-32900000I0J-500000D01*
G01*
G37*
G36*
G01*
X58230000Y-37630000D02*
X58230000Y-38230000D01*
G75*
G02*
X57730000Y-38730000I-500000J0D01*
G01*
X57730000Y-38730000D01*
G75*
G02*
X57230000Y-38230000I0J500000D01*
G01*
X57230000Y-37630000D01*
G75*
G02*
X57730000Y-37130000I500000J0D01*
G01*
X57730000Y-37130000D01*
G75*
G02*
X58230000Y-37630000I0J-500000D01*
G01*
G37*
G36*
G01*
X66770000Y-37630000D02*
X66770000Y-38230000D01*
G75*
G02*
X66270000Y-38730000I-500000J0D01*
G01*
X66270000Y-38730000D01*
G75*
G02*
X65770000Y-38230000I0J500000D01*
G01*
X65770000Y-37630000D01*
G75*
G02*
X66270000Y-37130000I500000J0D01*
G01*
X66270000Y-37130000D01*
G75*
G02*
X66770000Y-37630000I0J-500000D01*
G01*
G37*
%TD*%
%TO.C,R23*%
G36*
G01*
X75427500Y-49550000D02*
X74952500Y-49550000D01*
G75*
G02*
X74715000Y-49312500I0J237500D01*
G01*
X74715000Y-48737500D01*
G75*
G02*
X74952500Y-48500000I237500J0D01*
G01*
X75427500Y-48500000D01*
G75*
G02*
X75665000Y-48737500I0J-237500D01*
G01*
X75665000Y-49312500D01*
G75*
G02*
X75427500Y-49550000I-237500J0D01*
G01*
G37*
G36*
G01*
X75427500Y-51300000D02*
X74952500Y-51300000D01*
G75*
G02*
X74715000Y-51062500I0J237500D01*
G01*
X74715000Y-50487500D01*
G75*
G02*
X74952500Y-50250000I237500J0D01*
G01*
X75427500Y-50250000D01*
G75*
G02*
X75665000Y-50487500I0J-237500D01*
G01*
X75665000Y-51062500D01*
G75*
G02*
X75427500Y-51300000I-237500J0D01*
G01*
G37*
%TD*%
%TO.C,C18*%
G36*
G01*
X82162500Y-50250000D02*
X82637500Y-50250000D01*
G75*
G02*
X82875000Y-50487500I0J-237500D01*
G01*
X82875000Y-51062500D01*
G75*
G02*
X82637500Y-51300000I-237500J0D01*
G01*
X82162500Y-51300000D01*
G75*
G02*
X81925000Y-51062500I0J237500D01*
G01*
X81925000Y-50487500D01*
G75*
G02*
X82162500Y-50250000I237500J0D01*
G01*
G37*
G36*
G01*
X82162500Y-48500000D02*
X82637500Y-48500000D01*
G75*
G02*
X82875000Y-48737500I0J-237500D01*
G01*
X82875000Y-49312500D01*
G75*
G02*
X82637500Y-49550000I-237500J0D01*
G01*
X82162500Y-49550000D01*
G75*
G02*
X81925000Y-49312500I0J237500D01*
G01*
X81925000Y-48737500D01*
G75*
G02*
X82162500Y-48500000I237500J0D01*
G01*
G37*
%TD*%
D15*
%TO.C,U29*%
X36000000Y-52880000D03*
X36000000Y-65580000D03*
X36000000Y-57960000D03*
X36000000Y-68120000D03*
X36000000Y-78280000D03*
X36000000Y-50340000D03*
X36000000Y-75740000D03*
X36000000Y-60500000D03*
X36000000Y-73200000D03*
X36000000Y-70660000D03*
X36000000Y-63040000D03*
D16*
X36000000Y-47800000D03*
D15*
X36000000Y-80820000D03*
X36000000Y-55420000D03*
D17*
X129100000Y-40000000D03*
X129100000Y-89500000D03*
X37000000Y-89500000D03*
X37000000Y-40000000D03*
%TD*%
D18*
%TO.C,J1*%
X47500000Y-42300000D03*
D19*
X47500000Y-36500000D03*
D20*
X42700000Y-39300000D03*
%TD*%
D21*
%TO.C,BT2*%
X43670000Y-86000000D03*
X122330000Y-86000000D03*
D22*
X110600000Y-78000000D03*
X55400000Y-94000000D03*
D23*
X47070000Y-78000000D03*
%TD*%
%TO.C,TH1*%
G36*
G01*
X82237500Y-85737500D02*
X82237500Y-85262500D01*
G75*
G02*
X82475000Y-85025000I237500J0D01*
G01*
X82975000Y-85025000D01*
G75*
G02*
X83212500Y-85262500I0J-237500D01*
G01*
X83212500Y-85737500D01*
G75*
G02*
X82975000Y-85975000I-237500J0D01*
G01*
X82475000Y-85975000D01*
G75*
G02*
X82237500Y-85737500I0J237500D01*
G01*
G37*
G36*
G01*
X80412500Y-85737500D02*
X80412500Y-85262500D01*
G75*
G02*
X80650000Y-85025000I237500J0D01*
G01*
X81150000Y-85025000D01*
G75*
G02*
X81387500Y-85262500I0J-237500D01*
G01*
X81387500Y-85737500D01*
G75*
G02*
X81150000Y-85975000I-237500J0D01*
G01*
X80650000Y-85975000D01*
G75*
G02*
X80412500Y-85737500I0J237500D01*
G01*
G37*
%TD*%
%TO.C,U27*%
G36*
G01*
X112500000Y-48148000D02*
X112500000Y-49252000D01*
G75*
G02*
X112252000Y-49500000I-248000J0D01*
G01*
X111148000Y-49500000D01*
G75*
G02*
X110900000Y-49252000I0J248000D01*
G01*
X110900000Y-48148000D01*
G75*
G02*
X111148000Y-47900000I248000J0D01*
G01*
X112252000Y-47900000D01*
G75*
G02*
X112500000Y-48148000I0J-248000D01*
G01*
G37*
D24*
X112970000Y-46160000D03*
X114240000Y-48700000D03*
X115510000Y-46160000D03*
X116780000Y-48700000D03*
X118050000Y-46160000D03*
X119320000Y-48700000D03*
X120590000Y-46160000D03*
D17*
X110430000Y-39810000D03*
X121860000Y-39810000D03*
D25*
X108245000Y-42860000D03*
X124045000Y-42860000D03*
D26*
X113220000Y-53530000D03*
X119070000Y-53530000D03*
X110680000Y-53530000D03*
X121610000Y-53530000D03*
%TD*%
D27*
%TO.C,U11*%
X142400001Y-35700001D03*
X142400001Y-34700001D03*
X142400001Y-33699999D03*
X139600001Y-35700001D03*
X139600001Y-34700001D03*
X139600001Y-33699999D03*
D28*
X141000000Y-34700000D03*
%TD*%
%TO.C,R46*%
G36*
G01*
X70577500Y-36250000D02*
X70102500Y-36250000D01*
G75*
G02*
X69865000Y-36012500I0J237500D01*
G01*
X69865000Y-35512500D01*
G75*
G02*
X70102500Y-35275000I237500J0D01*
G01*
X70577500Y-35275000D01*
G75*
G02*
X70815000Y-35512500I0J-237500D01*
G01*
X70815000Y-36012500D01*
G75*
G02*
X70577500Y-36250000I-237500J0D01*
G01*
G37*
G36*
G01*
X70577500Y-38075000D02*
X70102500Y-38075000D01*
G75*
G02*
X69865000Y-37837500I0J237500D01*
G01*
X69865000Y-37337500D01*
G75*
G02*
X70102500Y-37100000I237500J0D01*
G01*
X70577500Y-37100000D01*
G75*
G02*
X70815000Y-37337500I0J-237500D01*
G01*
X70815000Y-37837500D01*
G75*
G02*
X70577500Y-38075000I-237500J0D01*
G01*
G37*
%TD*%
%TO.C,R45*%
G36*
G01*
X71642500Y-37100000D02*
X72117500Y-37100000D01*
G75*
G02*
X72355000Y-37337500I0J-237500D01*
G01*
X72355000Y-37837500D01*
G75*
G02*
X72117500Y-38075000I-237500J0D01*
G01*
X71642500Y-38075000D01*
G75*
G02*
X71405000Y-37837500I0J237500D01*
G01*
X71405000Y-37337500D01*
G75*
G02*
X71642500Y-37100000I237500J0D01*
G01*
G37*
G36*
G01*
X71642500Y-35275000D02*
X72117500Y-35275000D01*
G75*
G02*
X72355000Y-35512500I0J-237500D01*
G01*
X72355000Y-36012500D01*
G75*
G02*
X72117500Y-36250000I-237500J0D01*
G01*
X71642500Y-36250000D01*
G75*
G02*
X71405000Y-36012500I0J237500D01*
G01*
X71405000Y-35512500D01*
G75*
G02*
X71642500Y-35275000I237500J0D01*
G01*
G37*
%TD*%
%TO.C,R41*%
G36*
G01*
X75197500Y-36250000D02*
X74722500Y-36250000D01*
G75*
G02*
X74485000Y-36012500I0J237500D01*
G01*
X74485000Y-35512500D01*
G75*
G02*
X74722500Y-35275000I237500J0D01*
G01*
X75197500Y-35275000D01*
G75*
G02*
X75435000Y-35512500I0J-237500D01*
G01*
X75435000Y-36012500D01*
G75*
G02*
X75197500Y-36250000I-237500J0D01*
G01*
G37*
G36*
G01*
X75197500Y-38075000D02*
X74722500Y-38075000D01*
G75*
G02*
X74485000Y-37837500I0J237500D01*
G01*
X74485000Y-37337500D01*
G75*
G02*
X74722500Y-37100000I237500J0D01*
G01*
X75197500Y-37100000D01*
G75*
G02*
X75435000Y-37337500I0J-237500D01*
G01*
X75435000Y-37837500D01*
G75*
G02*
X75197500Y-38075000I-237500J0D01*
G01*
G37*
%TD*%
%TO.C,R40*%
G36*
G01*
X73182500Y-37100000D02*
X73657500Y-37100000D01*
G75*
G02*
X73895000Y-37337500I0J-237500D01*
G01*
X73895000Y-37837500D01*
G75*
G02*
X73657500Y-38075000I-237500J0D01*
G01*
X73182500Y-38075000D01*
G75*
G02*
X72945000Y-37837500I0J237500D01*
G01*
X72945000Y-37337500D01*
G75*
G02*
X73182500Y-37100000I237500J0D01*
G01*
G37*
G36*
G01*
X73182500Y-35275000D02*
X73657500Y-35275000D01*
G75*
G02*
X73895000Y-35512500I0J-237500D01*
G01*
X73895000Y-36012500D01*
G75*
G02*
X73657500Y-36250000I-237500J0D01*
G01*
X73182500Y-36250000D01*
G75*
G02*
X72945000Y-36012500I0J237500D01*
G01*
X72945000Y-35512500D01*
G75*
G02*
X73182500Y-35275000I237500J0D01*
G01*
G37*
%TD*%
D29*
%TO.C,U16*%
X133800000Y-33700000D03*
X133800000Y-34500000D03*
X133800000Y-35300000D03*
X133800000Y-36100000D03*
X136200000Y-36100000D03*
X136200000Y-35300000D03*
X136200000Y-34500000D03*
X136200000Y-33700000D03*
%TD*%
D30*
%TO.C,U12*%
X129550000Y-33350001D03*
X129550000Y-34300001D03*
X129550000Y-35250001D03*
X126650000Y-35250001D03*
X126650000Y-34300001D03*
X126650000Y-33350001D03*
%TD*%
D31*
%TO.C,U8*%
X82400000Y-45050000D03*
X82400000Y-46950000D03*
X80200000Y-46950000D03*
X80200000Y-46000000D03*
X80200000Y-45050000D03*
%TD*%
D32*
%TO.C,U4*%
X60641400Y-45531600D03*
X60641400Y-47995400D03*
X56044000Y-45531600D03*
X56044000Y-47995400D03*
D33*
X59600000Y-46700000D03*
X57085400Y-46700000D03*
D34*
X57695000Y-50137000D03*
X60235000Y-50137000D03*
D35*
X60285800Y-44787000D03*
D34*
X58965000Y-50137000D03*
D35*
X58914200Y-44787000D03*
D36*
X57745800Y-44795000D03*
D34*
X56425000Y-50137000D03*
D36*
X56425000Y-44795000D03*
%TD*%
D32*
%TO.C,U5*%
X67256000Y-45531600D03*
X67256000Y-47995400D03*
X62658600Y-45531600D03*
X62658600Y-47995400D03*
D33*
X66214600Y-46700000D03*
X63700000Y-46700000D03*
D34*
X64309600Y-50137000D03*
X66849600Y-50137000D03*
D35*
X66900400Y-44787000D03*
D34*
X65579600Y-50137000D03*
D35*
X65528800Y-44787000D03*
D36*
X64360400Y-44795000D03*
D34*
X63039600Y-50137000D03*
D36*
X63039600Y-44795000D03*
%TD*%
D37*
%TO.C,SW1*%
X79650000Y-36790000D03*
D38*
X80900000Y-34300000D03*
X85400000Y-34300000D03*
D37*
X86660000Y-36790000D03*
%TD*%
%TO.C,R44*%
G36*
G01*
X76737500Y-36325000D02*
X76262500Y-36325000D01*
G75*
G02*
X76025000Y-36087500I0J237500D01*
G01*
X76025000Y-35512500D01*
G75*
G02*
X76262500Y-35275000I237500J0D01*
G01*
X76737500Y-35275000D01*
G75*
G02*
X76975000Y-35512500I0J-237500D01*
G01*
X76975000Y-36087500D01*
G75*
G02*
X76737500Y-36325000I-237500J0D01*
G01*
G37*
G36*
G01*
X76737500Y-38075000D02*
X76262500Y-38075000D01*
G75*
G02*
X76025000Y-37837500I0J237500D01*
G01*
X76025000Y-37262500D01*
G75*
G02*
X76262500Y-37025000I237500J0D01*
G01*
X76737500Y-37025000D01*
G75*
G02*
X76975000Y-37262500I0J-237500D01*
G01*
X76975000Y-37837500D01*
G75*
G02*
X76737500Y-38075000I-237500J0D01*
G01*
G37*
%TD*%
%TO.C,R39*%
G36*
G01*
X69037500Y-36325000D02*
X68562500Y-36325000D01*
G75*
G02*
X68325000Y-36087500I0J237500D01*
G01*
X68325000Y-35512500D01*
G75*
G02*
X68562500Y-35275000I237500J0D01*
G01*
X69037500Y-35275000D01*
G75*
G02*
X69275000Y-35512500I0J-237500D01*
G01*
X69275000Y-36087500D01*
G75*
G02*
X69037500Y-36325000I-237500J0D01*
G01*
G37*
G36*
G01*
X69037500Y-38075000D02*
X68562500Y-38075000D01*
G75*
G02*
X68325000Y-37837500I0J237500D01*
G01*
X68325000Y-37262500D01*
G75*
G02*
X68562500Y-37025000I237500J0D01*
G01*
X69037500Y-37025000D01*
G75*
G02*
X69275000Y-37262500I0J-237500D01*
G01*
X69275000Y-37837500D01*
G75*
G02*
X69037500Y-38075000I-237500J0D01*
G01*
G37*
%TD*%
%TO.C,R22*%
G36*
G01*
X76869500Y-49550000D02*
X76394500Y-49550000D01*
G75*
G02*
X76157000Y-49312500I0J237500D01*
G01*
X76157000Y-48737500D01*
G75*
G02*
X76394500Y-48500000I237500J0D01*
G01*
X76869500Y-48500000D01*
G75*
G02*
X77107000Y-48737500I0J-237500D01*
G01*
X77107000Y-49312500D01*
G75*
G02*
X76869500Y-49550000I-237500J0D01*
G01*
G37*
G36*
G01*
X76869500Y-51300000D02*
X76394500Y-51300000D01*
G75*
G02*
X76157000Y-51062500I0J237500D01*
G01*
X76157000Y-50487500D01*
G75*
G02*
X76394500Y-50250000I237500J0D01*
G01*
X76869500Y-50250000D01*
G75*
G02*
X77107000Y-50487500I0J-237500D01*
G01*
X77107000Y-51062500D01*
G75*
G02*
X76869500Y-51300000I-237500J0D01*
G01*
G37*
%TD*%
%TO.C,R20*%
G36*
G01*
X80720500Y-50250000D02*
X81195500Y-50250000D01*
G75*
G02*
X81433000Y-50487500I0J-237500D01*
G01*
X81433000Y-51062500D01*
G75*
G02*
X81195500Y-51300000I-237500J0D01*
G01*
X80720500Y-51300000D01*
G75*
G02*
X80483000Y-51062500I0J237500D01*
G01*
X80483000Y-50487500D01*
G75*
G02*
X80720500Y-50250000I237500J0D01*
G01*
G37*
G36*
G01*
X80720500Y-48500000D02*
X81195500Y-48500000D01*
G75*
G02*
X81433000Y-48737500I0J-237500D01*
G01*
X81433000Y-49312500D01*
G75*
G02*
X81195500Y-49550000I-237500J0D01*
G01*
X80720500Y-49550000D01*
G75*
G02*
X80483000Y-49312500I0J237500D01*
G01*
X80483000Y-48737500D01*
G75*
G02*
X80720500Y-48500000I237500J0D01*
G01*
G37*
%TD*%
%TO.C,R19*%
G36*
G01*
X78777500Y-45500000D02*
X78302500Y-45500000D01*
G75*
G02*
X78065000Y-45262500I0J237500D01*
G01*
X78065000Y-44687500D01*
G75*
G02*
X78302500Y-44450000I237500J0D01*
G01*
X78777500Y-44450000D01*
G75*
G02*
X79015000Y-44687500I0J-237500D01*
G01*
X79015000Y-45262500D01*
G75*
G02*
X78777500Y-45500000I-237500J0D01*
G01*
G37*
G36*
G01*
X78777500Y-47250000D02*
X78302500Y-47250000D01*
G75*
G02*
X78065000Y-47012500I0J237500D01*
G01*
X78065000Y-46437500D01*
G75*
G02*
X78302500Y-46200000I237500J0D01*
G01*
X78777500Y-46200000D01*
G75*
G02*
X79015000Y-46437500I0J-237500D01*
G01*
X79015000Y-47012500D01*
G75*
G02*
X78777500Y-47250000I-237500J0D01*
G01*
G37*
%TD*%
%TO.C,R16*%
G36*
G01*
X52750000Y-52350001D02*
X52750000Y-51449999D01*
G75*
G02*
X52999999Y-51200000I249999J0D01*
G01*
X53650001Y-51200000D01*
G75*
G02*
X53900000Y-51449999I0J-249999D01*
G01*
X53900000Y-52350001D01*
G75*
G02*
X53650001Y-52600000I-249999J0D01*
G01*
X52999999Y-52600000D01*
G75*
G02*
X52750000Y-52350001I0J249999D01*
G01*
G37*
G36*
G01*
X50700000Y-52350001D02*
X50700000Y-51449999D01*
G75*
G02*
X50949999Y-51200000I249999J0D01*
G01*
X51600001Y-51200000D01*
G75*
G02*
X51850000Y-51449999I0J-249999D01*
G01*
X51850000Y-52350001D01*
G75*
G02*
X51600001Y-52600000I-249999J0D01*
G01*
X50949999Y-52600000D01*
G75*
G02*
X50700000Y-52350001I0J249999D01*
G01*
G37*
%TD*%
%TO.C,R12*%
G36*
G01*
X60512500Y-53550275D02*
X60512500Y-56449725D01*
G75*
G02*
X60262225Y-56700000I-250275J0D01*
G01*
X59587775Y-56700000D01*
G75*
G02*
X59337500Y-56449725I0J250275D01*
G01*
X59337500Y-53550275D01*
G75*
G02*
X59587775Y-53300000I250275J0D01*
G01*
X60262225Y-53300000D01*
G75*
G02*
X60512500Y-53550275I0J-250275D01*
G01*
G37*
G36*
G01*
X62187500Y-53550275D02*
X62187500Y-56449725D01*
G75*
G02*
X61937225Y-56700000I-250275J0D01*
G01*
X61262775Y-56700000D01*
G75*
G02*
X61012500Y-56449725I0J250275D01*
G01*
X61012500Y-53550275D01*
G75*
G02*
X61262775Y-53300000I250275J0D01*
G01*
X61937225Y-53300000D01*
G75*
G02*
X62187500Y-53550275I0J-250275D01*
G01*
G37*
%TD*%
%TO.C,R10*%
G36*
G01*
X70525000Y-45737500D02*
X69275000Y-45737500D01*
G75*
G02*
X69025000Y-45487500I0J250000D01*
G01*
X69025000Y-44562500D01*
G75*
G02*
X69275000Y-44312500I250000J0D01*
G01*
X70525000Y-44312500D01*
G75*
G02*
X70775000Y-44562500I0J-250000D01*
G01*
X70775000Y-45487500D01*
G75*
G02*
X70525000Y-45737500I-250000J0D01*
G01*
G37*
G36*
G01*
X70525000Y-48712500D02*
X69275000Y-48712500D01*
G75*
G02*
X69025000Y-48462500I0J250000D01*
G01*
X69025000Y-47537500D01*
G75*
G02*
X69275000Y-47287500I250000J0D01*
G01*
X70525000Y-47287500D01*
G75*
G02*
X70775000Y-47537500I0J-250000D01*
G01*
X70775000Y-48462500D01*
G75*
G02*
X70525000Y-48712500I-250000J0D01*
G01*
G37*
%TD*%
D39*
%TO.C,Q4*%
X74700000Y-40850000D03*
X74700000Y-39550000D03*
X76600000Y-40200000D03*
X74700000Y-40200000D03*
X76600000Y-39550000D03*
X76600000Y-40850000D03*
%TD*%
%TO.C,Q2*%
G36*
G01*
X55675000Y-54050000D02*
X55675000Y-53750000D01*
G75*
G02*
X55825000Y-53600000I150000J0D01*
G01*
X57475000Y-53600000D01*
G75*
G02*
X57625000Y-53750000I0J-150000D01*
G01*
X57625000Y-54050000D01*
G75*
G02*
X57475000Y-54200000I-150000J0D01*
G01*
X55825000Y-54200000D01*
G75*
G02*
X55675000Y-54050000I0J150000D01*
G01*
G37*
G36*
G01*
X55675000Y-55320000D02*
X55675000Y-55020000D01*
G75*
G02*
X55825000Y-54870000I150000J0D01*
G01*
X57475000Y-54870000D01*
G75*
G02*
X57625000Y-55020000I0J-150000D01*
G01*
X57625000Y-55320000D01*
G75*
G02*
X57475000Y-55470000I-150000J0D01*
G01*
X55825000Y-55470000D01*
G75*
G02*
X55675000Y-55320000I0J150000D01*
G01*
G37*
G36*
G01*
X55675000Y-56590000D02*
X55675000Y-56290000D01*
G75*
G02*
X55825000Y-56140000I150000J0D01*
G01*
X57475000Y-56140000D01*
G75*
G02*
X57625000Y-56290000I0J-150000D01*
G01*
X57625000Y-56590000D01*
G75*
G02*
X57475000Y-56740000I-150000J0D01*
G01*
X55825000Y-56740000D01*
G75*
G02*
X55675000Y-56590000I0J150000D01*
G01*
G37*
G36*
G01*
X55675000Y-57860000D02*
X55675000Y-57560000D01*
G75*
G02*
X55825000Y-57410000I150000J0D01*
G01*
X57475000Y-57410000D01*
G75*
G02*
X57625000Y-57560000I0J-150000D01*
G01*
X57625000Y-57860000D01*
G75*
G02*
X57475000Y-58010000I-150000J0D01*
G01*
X55825000Y-58010000D01*
G75*
G02*
X55675000Y-57860000I0J150000D01*
G01*
G37*
G36*
G01*
X50725000Y-57860000D02*
X50725000Y-57560000D01*
G75*
G02*
X50875000Y-57410000I150000J0D01*
G01*
X52525000Y-57410000D01*
G75*
G02*
X52675000Y-57560000I0J-150000D01*
G01*
X52675000Y-57860000D01*
G75*
G02*
X52525000Y-58010000I-150000J0D01*
G01*
X50875000Y-58010000D01*
G75*
G02*
X50725000Y-57860000I0J150000D01*
G01*
G37*
G36*
G01*
X50725000Y-56590000D02*
X50725000Y-56290000D01*
G75*
G02*
X50875000Y-56140000I150000J0D01*
G01*
X52525000Y-56140000D01*
G75*
G02*
X52675000Y-56290000I0J-150000D01*
G01*
X52675000Y-56590000D01*
G75*
G02*
X52525000Y-56740000I-150000J0D01*
G01*
X50875000Y-56740000D01*
G75*
G02*
X50725000Y-56590000I0J150000D01*
G01*
G37*
G36*
G01*
X50725000Y-55320000D02*
X50725000Y-55020000D01*
G75*
G02*
X50875000Y-54870000I150000J0D01*
G01*
X52525000Y-54870000D01*
G75*
G02*
X52675000Y-55020000I0J-150000D01*
G01*
X52675000Y-55320000D01*
G75*
G02*
X52525000Y-55470000I-150000J0D01*
G01*
X50875000Y-55470000D01*
G75*
G02*
X50725000Y-55320000I0J150000D01*
G01*
G37*
G36*
G01*
X50725000Y-54050000D02*
X50725000Y-53750000D01*
G75*
G02*
X50875000Y-53600000I150000J0D01*
G01*
X52525000Y-53600000D01*
G75*
G02*
X52675000Y-53750000I0J-150000D01*
G01*
X52675000Y-54050000D01*
G75*
G02*
X52525000Y-54200000I-150000J0D01*
G01*
X50875000Y-54200000D01*
G75*
G02*
X50725000Y-54050000I0J150000D01*
G01*
G37*
%TD*%
D40*
%TO.C,J4*%
X103450000Y-47900000D03*
X102500000Y-47900000D03*
X94800000Y-47900000D03*
X95900000Y-47900000D03*
X97000000Y-47900000D03*
X98100000Y-47900000D03*
X99200000Y-47900000D03*
X100300000Y-47900000D03*
X101400000Y-47900000D03*
D41*
X93250000Y-47900000D03*
X104400000Y-43600000D03*
D42*
X104400000Y-37400000D03*
D43*
X104400000Y-33250000D03*
D44*
X90900000Y-32800000D03*
%TD*%
D45*
%TO.C,J2*%
X75539600Y-54472400D03*
X75539600Y-58372400D03*
X76809600Y-54472400D03*
X76809600Y-58372400D03*
X78079600Y-54472400D03*
X78079600Y-58372400D03*
X79349600Y-54472400D03*
X79349600Y-58372400D03*
D46*
X80619600Y-54472400D03*
D45*
X80619600Y-58372400D03*
%TD*%
%TO.C,F1*%
G36*
G01*
X52475000Y-47387500D02*
X53725000Y-47387500D01*
G75*
G02*
X53975000Y-47637500I0J-250000D01*
G01*
X53975000Y-48562500D01*
G75*
G02*
X53725000Y-48812500I-250000J0D01*
G01*
X52475000Y-48812500D01*
G75*
G02*
X52225000Y-48562500I0J250000D01*
G01*
X52225000Y-47637500D01*
G75*
G02*
X52475000Y-47387500I250000J0D01*
G01*
G37*
G36*
G01*
X52475000Y-44412500D02*
X53725000Y-44412500D01*
G75*
G02*
X53975000Y-44662500I0J-250000D01*
G01*
X53975000Y-45587500D01*
G75*
G02*
X53725000Y-45837500I-250000J0D01*
G01*
X52475000Y-45837500D01*
G75*
G02*
X52225000Y-45587500I0J250000D01*
G01*
X52225000Y-44662500D01*
G75*
G02*
X52475000Y-44412500I250000J0D01*
G01*
G37*
%TD*%
%TO.C,D18*%
G36*
G01*
X74150000Y-33062500D02*
X74150000Y-33537500D01*
G75*
G02*
X73912500Y-33775000I-237500J0D01*
G01*
X73337500Y-33775000D01*
G75*
G02*
X73100000Y-33537500I0J237500D01*
G01*
X73100000Y-33062500D01*
G75*
G02*
X73337500Y-32825000I237500J0D01*
G01*
X73912500Y-32825000D01*
G75*
G02*
X74150000Y-33062500I0J-237500D01*
G01*
G37*
G36*
G01*
X75900000Y-33062500D02*
X75900000Y-33537500D01*
G75*
G02*
X75662500Y-33775000I-237500J0D01*
G01*
X75087500Y-33775000D01*
G75*
G02*
X74850000Y-33537500I0J237500D01*
G01*
X74850000Y-33062500D01*
G75*
G02*
X75087500Y-32825000I237500J0D01*
G01*
X75662500Y-32825000D01*
G75*
G02*
X75900000Y-33062500I0J-237500D01*
G01*
G37*
%TD*%
%TO.C,D17*%
G36*
G01*
X70950000Y-33537500D02*
X70950000Y-33062500D01*
G75*
G02*
X71187500Y-32825000I237500J0D01*
G01*
X71762500Y-32825000D01*
G75*
G02*
X72000000Y-33062500I0J-237500D01*
G01*
X72000000Y-33537500D01*
G75*
G02*
X71762500Y-33775000I-237500J0D01*
G01*
X71187500Y-33775000D01*
G75*
G02*
X70950000Y-33537500I0J237500D01*
G01*
G37*
G36*
G01*
X69200000Y-33537500D02*
X69200000Y-33062500D01*
G75*
G02*
X69437500Y-32825000I237500J0D01*
G01*
X70012500Y-32825000D01*
G75*
G02*
X70250000Y-33062500I0J-237500D01*
G01*
X70250000Y-33537500D01*
G75*
G02*
X70012500Y-33775000I-237500J0D01*
G01*
X69437500Y-33775000D01*
G75*
G02*
X69200000Y-33537500I0J237500D01*
G01*
G37*
%TD*%
D47*
%TO.C,D12*%
X49100000Y-51400000D03*
X49100000Y-53600000D03*
%TD*%
D48*
%TO.C,D11*%
X73200000Y-46900000D03*
X72550000Y-44900000D03*
X73850000Y-44900000D03*
%TD*%
%TO.C,C89*%
G36*
G01*
X43950000Y-55550000D02*
X43950000Y-54450000D01*
G75*
G02*
X44200000Y-54200000I250000J0D01*
G01*
X47200000Y-54200000D01*
G75*
G02*
X47450000Y-54450000I0J-250000D01*
G01*
X47450000Y-55550000D01*
G75*
G02*
X47200000Y-55800000I-250000J0D01*
G01*
X44200000Y-55800000D01*
G75*
G02*
X43950000Y-55550000I0J250000D01*
G01*
G37*
G36*
G01*
X38550000Y-55550000D02*
X38550000Y-54450000D01*
G75*
G02*
X38800000Y-54200000I250000J0D01*
G01*
X41800000Y-54200000D01*
G75*
G02*
X42050000Y-54450000I0J-250000D01*
G01*
X42050000Y-55550000D01*
G75*
G02*
X41800000Y-55800000I-250000J0D01*
G01*
X38800000Y-55800000D01*
G75*
G02*
X38550000Y-55550000I0J250000D01*
G01*
G37*
%TD*%
%TO.C,C88*%
G36*
G01*
X38937500Y-48525000D02*
X38462500Y-48525000D01*
G75*
G02*
X38225000Y-48287500I0J237500D01*
G01*
X38225000Y-47712500D01*
G75*
G02*
X38462500Y-47475000I237500J0D01*
G01*
X38937500Y-47475000D01*
G75*
G02*
X39175000Y-47712500I0J-237500D01*
G01*
X39175000Y-48287500D01*
G75*
G02*
X38937500Y-48525000I-237500J0D01*
G01*
G37*
G36*
G01*
X38937500Y-50275000D02*
X38462500Y-50275000D01*
G75*
G02*
X38225000Y-50037500I0J237500D01*
G01*
X38225000Y-49462500D01*
G75*
G02*
X38462500Y-49225000I237500J0D01*
G01*
X38937500Y-49225000D01*
G75*
G02*
X39175000Y-49462500I0J-237500D01*
G01*
X39175000Y-50037500D01*
G75*
G02*
X38937500Y-50275000I-237500J0D01*
G01*
G37*
%TD*%
%TO.C,C14*%
G36*
G01*
X75597500Y-45500000D02*
X75122500Y-45500000D01*
G75*
G02*
X74885000Y-45262500I0J237500D01*
G01*
X74885000Y-44687500D01*
G75*
G02*
X75122500Y-44450000I237500J0D01*
G01*
X75597500Y-44450000D01*
G75*
G02*
X75835000Y-44687500I0J-237500D01*
G01*
X75835000Y-45262500D01*
G75*
G02*
X75597500Y-45500000I-237500J0D01*
G01*
G37*
G36*
G01*
X75597500Y-47250000D02*
X75122500Y-47250000D01*
G75*
G02*
X74885000Y-47012500I0J237500D01*
G01*
X74885000Y-46437500D01*
G75*
G02*
X75122500Y-46200000I237500J0D01*
G01*
X75597500Y-46200000D01*
G75*
G02*
X75835000Y-46437500I0J-237500D01*
G01*
X75835000Y-47012500D01*
G75*
G02*
X75597500Y-47250000I-237500J0D01*
G01*
G37*
%TD*%
%TO.C,C1*%
G36*
G01*
X41250001Y-48525000D02*
X40349999Y-48525000D01*
G75*
G02*
X40100000Y-48275001I0J249999D01*
G01*
X40100000Y-47624999D01*
G75*
G02*
X40349999Y-47375000I249999J0D01*
G01*
X41250001Y-47375000D01*
G75*
G02*
X41500000Y-47624999I0J-249999D01*
G01*
X41500000Y-48275001D01*
G75*
G02*
X41250001Y-48525000I-249999J0D01*
G01*
G37*
G36*
G01*
X41250001Y-50575000D02*
X40349999Y-50575000D01*
G75*
G02*
X40100000Y-50325001I0J249999D01*
G01*
X40100000Y-49674999D01*
G75*
G02*
X40349999Y-49425000I249999J0D01*
G01*
X41250001Y-49425000D01*
G75*
G02*
X41500000Y-49674999I0J-249999D01*
G01*
X41500000Y-50325001D01*
G75*
G02*
X41250001Y-50575000I-249999J0D01*
G01*
G37*
%TD*%
D49*
%TO.C,BZ1*%
X129330000Y-78420000D03*
D50*
X129330000Y-73420000D03*
%TD*%
%TO.C,C5*%
G36*
G01*
X51437500Y-47225000D02*
X50962500Y-47225000D01*
G75*
G02*
X50725000Y-46987500I0J237500D01*
G01*
X50725000Y-46412500D01*
G75*
G02*
X50962500Y-46175000I237500J0D01*
G01*
X51437500Y-46175000D01*
G75*
G02*
X51675000Y-46412500I0J-237500D01*
G01*
X51675000Y-46987500D01*
G75*
G02*
X51437500Y-47225000I-237500J0D01*
G01*
G37*
G36*
G01*
X51437500Y-45475000D02*
X50962500Y-45475000D01*
G75*
G02*
X50725000Y-45237500I0J237500D01*
G01*
X50725000Y-44662500D01*
G75*
G02*
X50962500Y-44425000I237500J0D01*
G01*
X51437500Y-44425000D01*
G75*
G02*
X51675000Y-44662500I0J-237500D01*
G01*
X51675000Y-45237500D01*
G75*
G02*
X51437500Y-45475000I-237500J0D01*
G01*
G37*
%TD*%
D51*
%TO.C,Q1*%
X46507500Y-46510000D03*
X46507500Y-47170000D03*
X46507500Y-47830000D03*
X46507500Y-48490000D03*
D11*
G36*
X49872500Y-46712500D02*
G01*
X49362500Y-46712500D01*
X49362500Y-46967500D01*
X49872500Y-46967500D01*
X49872500Y-47372500D01*
X49362500Y-47372500D01*
X49362500Y-47627500D01*
X49872500Y-47627500D01*
X49872500Y-48032500D01*
X49362500Y-48032500D01*
X49362500Y-48287500D01*
X49872500Y-48287500D01*
X49872500Y-48695000D01*
X49112500Y-48695000D01*
X49112500Y-48617500D01*
X47637500Y-48617500D01*
X47637500Y-46382500D01*
X49112500Y-46382500D01*
X49112500Y-46305000D01*
X49872500Y-46305000D01*
X49872500Y-46712500D01*
G37*
%TD*%
D52*
%TO.C,U3*%
X44600000Y-45200000D03*
X43950000Y-45200000D03*
X43300000Y-45200000D03*
X42650000Y-45200000D03*
X42650000Y-49600000D03*
X43300000Y-49600000D03*
X43950000Y-49600000D03*
X44600000Y-49600000D03*
%TD*%
%TO.C,C34*%
G36*
G01*
X84967500Y-41795000D02*
X84492500Y-41795000D01*
G75*
G02*
X84255000Y-41557500I0J237500D01*
G01*
X84255000Y-40982500D01*
G75*
G02*
X84492500Y-40745000I237500J0D01*
G01*
X84967500Y-40745000D01*
G75*
G02*
X85205000Y-40982500I0J-237500D01*
G01*
X85205000Y-41557500D01*
G75*
G02*
X84967500Y-41795000I-237500J0D01*
G01*
G37*
G36*
G01*
X84967500Y-40045000D02*
X84492500Y-40045000D01*
G75*
G02*
X84255000Y-39807500I0J237500D01*
G01*
X84255000Y-39232500D01*
G75*
G02*
X84492500Y-38995000I237500J0D01*
G01*
X84967500Y-38995000D01*
G75*
G02*
X85205000Y-39232500I0J-237500D01*
G01*
X85205000Y-39807500D01*
G75*
G02*
X84967500Y-40045000I-237500J0D01*
G01*
G37*
%TD*%
%TO.C,C41*%
G36*
G01*
X61349999Y-72925000D02*
X62250001Y-72925000D01*
G75*
G02*
X62500000Y-73174999I0J-249999D01*
G01*
X62500000Y-73825001D01*
G75*
G02*
X62250001Y-74075000I-249999J0D01*
G01*
X61349999Y-74075000D01*
G75*
G02*
X61100000Y-73825001I0J249999D01*
G01*
X61100000Y-73174999D01*
G75*
G02*
X61349999Y-72925000I249999J0D01*
G01*
G37*
G36*
G01*
X61349999Y-70875000D02*
X62250001Y-70875000D01*
G75*
G02*
X62500000Y-71124999I0J-249999D01*
G01*
X62500000Y-71775001D01*
G75*
G02*
X62250001Y-72025000I-249999J0D01*
G01*
X61349999Y-72025000D01*
G75*
G02*
X61100000Y-71775001I0J249999D01*
G01*
X61100000Y-71124999D01*
G75*
G02*
X61349999Y-70875000I249999J0D01*
G01*
G37*
%TD*%
%TO.C,C42*%
G36*
G01*
X60025000Y-73362500D02*
X60025000Y-73837500D01*
G75*
G02*
X59787500Y-74075000I-237500J0D01*
G01*
X59212500Y-74075000D01*
G75*
G02*
X58975000Y-73837500I0J237500D01*
G01*
X58975000Y-73362500D01*
G75*
G02*
X59212500Y-73125000I237500J0D01*
G01*
X59787500Y-73125000D01*
G75*
G02*
X60025000Y-73362500I0J-237500D01*
G01*
G37*
G36*
G01*
X58275000Y-73362500D02*
X58275000Y-73837500D01*
G75*
G02*
X58037500Y-74075000I-237500J0D01*
G01*
X57462500Y-74075000D01*
G75*
G02*
X57225000Y-73837500I0J237500D01*
G01*
X57225000Y-73362500D01*
G75*
G02*
X57462500Y-73125000I237500J0D01*
G01*
X58037500Y-73125000D01*
G75*
G02*
X58275000Y-73362500I0J-237500D01*
G01*
G37*
%TD*%
%TO.C,C43*%
G36*
G01*
X50575000Y-59937500D02*
X50575000Y-59462500D01*
G75*
G02*
X50812500Y-59225000I237500J0D01*
G01*
X51387500Y-59225000D01*
G75*
G02*
X51625000Y-59462500I0J-237500D01*
G01*
X51625000Y-59937500D01*
G75*
G02*
X51387500Y-60175000I-237500J0D01*
G01*
X50812500Y-60175000D01*
G75*
G02*
X50575000Y-59937500I0J237500D01*
G01*
G37*
G36*
G01*
X52325000Y-59937500D02*
X52325000Y-59462500D01*
G75*
G02*
X52562500Y-59225000I237500J0D01*
G01*
X53137500Y-59225000D01*
G75*
G02*
X53375000Y-59462500I0J-237500D01*
G01*
X53375000Y-59937500D01*
G75*
G02*
X53137500Y-60175000I-237500J0D01*
G01*
X52562500Y-60175000D01*
G75*
G02*
X52325000Y-59937500I0J237500D01*
G01*
G37*
%TD*%
%TO.C,C44*%
G36*
G01*
X52625000Y-61850001D02*
X52625000Y-60949999D01*
G75*
G02*
X52874999Y-60700000I249999J0D01*
G01*
X53525001Y-60700000D01*
G75*
G02*
X53775000Y-60949999I0J-249999D01*
G01*
X53775000Y-61850001D01*
G75*
G02*
X53525001Y-62100000I-249999J0D01*
G01*
X52874999Y-62100000D01*
G75*
G02*
X52625000Y-61850001I0J249999D01*
G01*
G37*
G36*
G01*
X50575000Y-61850001D02*
X50575000Y-60949999D01*
G75*
G02*
X50824999Y-60700000I249999J0D01*
G01*
X51475001Y-60700000D01*
G75*
G02*
X51725000Y-60949999I0J-249999D01*
G01*
X51725000Y-61850001D01*
G75*
G02*
X51475001Y-62100000I-249999J0D01*
G01*
X50824999Y-62100000D01*
G75*
G02*
X50575000Y-61850001I0J249999D01*
G01*
G37*
%TD*%
%TO.C,C45*%
G36*
G01*
X68649999Y-70775000D02*
X69550001Y-70775000D01*
G75*
G02*
X69800000Y-71024999I0J-249999D01*
G01*
X69800000Y-71675001D01*
G75*
G02*
X69550001Y-71925000I-249999J0D01*
G01*
X68649999Y-71925000D01*
G75*
G02*
X68400000Y-71675001I0J249999D01*
G01*
X68400000Y-71024999D01*
G75*
G02*
X68649999Y-70775000I249999J0D01*
G01*
G37*
G36*
G01*
X68649999Y-72825000D02*
X69550001Y-72825000D01*
G75*
G02*
X69800000Y-73074999I0J-249999D01*
G01*
X69800000Y-73725001D01*
G75*
G02*
X69550001Y-73975000I-249999J0D01*
G01*
X68649999Y-73975000D01*
G75*
G02*
X68400000Y-73725001I0J249999D01*
G01*
X68400000Y-73074999D01*
G75*
G02*
X68649999Y-72825000I249999J0D01*
G01*
G37*
%TD*%
%TO.C,C46*%
G36*
G01*
X70549999Y-72825000D02*
X71450001Y-72825000D01*
G75*
G02*
X71700000Y-73074999I0J-249999D01*
G01*
X71700000Y-73725001D01*
G75*
G02*
X71450001Y-73975000I-249999J0D01*
G01*
X70549999Y-73975000D01*
G75*
G02*
X70300000Y-73725001I0J249999D01*
G01*
X70300000Y-73074999D01*
G75*
G02*
X70549999Y-72825000I249999J0D01*
G01*
G37*
G36*
G01*
X70549999Y-70775000D02*
X71450001Y-70775000D01*
G75*
G02*
X71700000Y-71024999I0J-249999D01*
G01*
X71700000Y-71675001D01*
G75*
G02*
X71450001Y-71925000I-249999J0D01*
G01*
X70549999Y-71925000D01*
G75*
G02*
X70300000Y-71675001I0J249999D01*
G01*
X70300000Y-71024999D01*
G75*
G02*
X70549999Y-70775000I249999J0D01*
G01*
G37*
%TD*%
%TO.C,C47*%
G36*
G01*
X47737500Y-60275000D02*
X47262500Y-60275000D01*
G75*
G02*
X47025000Y-60037500I0J237500D01*
G01*
X47025000Y-59462500D01*
G75*
G02*
X47262500Y-59225000I237500J0D01*
G01*
X47737500Y-59225000D01*
G75*
G02*
X47975000Y-59462500I0J-237500D01*
G01*
X47975000Y-60037500D01*
G75*
G02*
X47737500Y-60275000I-237500J0D01*
G01*
G37*
G36*
G01*
X47737500Y-62025000D02*
X47262500Y-62025000D01*
G75*
G02*
X47025000Y-61787500I0J237500D01*
G01*
X47025000Y-61212500D01*
G75*
G02*
X47262500Y-60975000I237500J0D01*
G01*
X47737500Y-60975000D01*
G75*
G02*
X47975000Y-61212500I0J-237500D01*
G01*
X47975000Y-61787500D01*
G75*
G02*
X47737500Y-62025000I-237500J0D01*
G01*
G37*
%TD*%
%TO.C,C48*%
G36*
G01*
X56649999Y-64250000D02*
X57550001Y-64250000D01*
G75*
G02*
X57800000Y-64499999I0J-249999D01*
G01*
X57800000Y-65150001D01*
G75*
G02*
X57550001Y-65400000I-249999J0D01*
G01*
X56649999Y-65400000D01*
G75*
G02*
X56400000Y-65150001I0J249999D01*
G01*
X56400000Y-64499999D01*
G75*
G02*
X56649999Y-64250000I249999J0D01*
G01*
G37*
G36*
G01*
X56649999Y-62200000D02*
X57550001Y-62200000D01*
G75*
G02*
X57800000Y-62449999I0J-249999D01*
G01*
X57800000Y-63100001D01*
G75*
G02*
X57550001Y-63350000I-249999J0D01*
G01*
X56649999Y-63350000D01*
G75*
G02*
X56400000Y-63100001I0J249999D01*
G01*
X56400000Y-62449999D01*
G75*
G02*
X56649999Y-62200000I249999J0D01*
G01*
G37*
%TD*%
%TO.C,C49*%
G36*
G01*
X62062500Y-68350000D02*
X62537500Y-68350000D01*
G75*
G02*
X62775000Y-68587500I0J-237500D01*
G01*
X62775000Y-69162500D01*
G75*
G02*
X62537500Y-69400000I-237500J0D01*
G01*
X62062500Y-69400000D01*
G75*
G02*
X61825000Y-69162500I0J237500D01*
G01*
X61825000Y-68587500D01*
G75*
G02*
X62062500Y-68350000I237500J0D01*
G01*
G37*
G36*
G01*
X62062500Y-66600000D02*
X62537500Y-66600000D01*
G75*
G02*
X62775000Y-66837500I0J-237500D01*
G01*
X62775000Y-67412500D01*
G75*
G02*
X62537500Y-67650000I-237500J0D01*
G01*
X62062500Y-67650000D01*
G75*
G02*
X61825000Y-67412500I0J237500D01*
G01*
X61825000Y-66837500D01*
G75*
G02*
X62062500Y-66600000I237500J0D01*
G01*
G37*
%TD*%
%TO.C,C50*%
G36*
G01*
X50575000Y-66737500D02*
X50575000Y-66262500D01*
G75*
G02*
X50812500Y-66025000I237500J0D01*
G01*
X51387500Y-66025000D01*
G75*
G02*
X51625000Y-66262500I0J-237500D01*
G01*
X51625000Y-66737500D01*
G75*
G02*
X51387500Y-66975000I-237500J0D01*
G01*
X50812500Y-66975000D01*
G75*
G02*
X50575000Y-66737500I0J237500D01*
G01*
G37*
G36*
G01*
X52325000Y-66737500D02*
X52325000Y-66262500D01*
G75*
G02*
X52562500Y-66025000I237500J0D01*
G01*
X53137500Y-66025000D01*
G75*
G02*
X53375000Y-66262500I0J-237500D01*
G01*
X53375000Y-66737500D01*
G75*
G02*
X53137500Y-66975000I-237500J0D01*
G01*
X52562500Y-66975000D01*
G75*
G02*
X52325000Y-66737500I0J237500D01*
G01*
G37*
%TD*%
%TO.C,C51*%
G36*
G01*
X46725000Y-69937500D02*
X46725000Y-69462500D01*
G75*
G02*
X46962500Y-69225000I237500J0D01*
G01*
X47537500Y-69225000D01*
G75*
G02*
X47775000Y-69462500I0J-237500D01*
G01*
X47775000Y-69937500D01*
G75*
G02*
X47537500Y-70175000I-237500J0D01*
G01*
X46962500Y-70175000D01*
G75*
G02*
X46725000Y-69937500I0J237500D01*
G01*
G37*
G36*
G01*
X44975000Y-69937500D02*
X44975000Y-69462500D01*
G75*
G02*
X45212500Y-69225000I237500J0D01*
G01*
X45787500Y-69225000D01*
G75*
G02*
X46025000Y-69462500I0J-237500D01*
G01*
X46025000Y-69937500D01*
G75*
G02*
X45787500Y-70175000I-237500J0D01*
G01*
X45212500Y-70175000D01*
G75*
G02*
X44975000Y-69937500I0J237500D01*
G01*
G37*
%TD*%
%TO.C,C52*%
G36*
G01*
X50575000Y-63750001D02*
X50575000Y-62849999D01*
G75*
G02*
X50824999Y-62600000I249999J0D01*
G01*
X51475001Y-62600000D01*
G75*
G02*
X51725000Y-62849999I0J-249999D01*
G01*
X51725000Y-63750001D01*
G75*
G02*
X51475001Y-64000000I-249999J0D01*
G01*
X50824999Y-64000000D01*
G75*
G02*
X50575000Y-63750001I0J249999D01*
G01*
G37*
G36*
G01*
X52625000Y-63750001D02*
X52625000Y-62849999D01*
G75*
G02*
X52874999Y-62600000I249999J0D01*
G01*
X53525001Y-62600000D01*
G75*
G02*
X53775000Y-62849999I0J-249999D01*
G01*
X53775000Y-63750001D01*
G75*
G02*
X53525001Y-64000000I-249999J0D01*
G01*
X52874999Y-64000000D01*
G75*
G02*
X52625000Y-63750001I0J249999D01*
G01*
G37*
%TD*%
%TO.C,C53*%
G36*
G01*
X66049999Y-64325000D02*
X66950001Y-64325000D01*
G75*
G02*
X67200000Y-64574999I0J-249999D01*
G01*
X67200000Y-65225001D01*
G75*
G02*
X66950001Y-65475000I-249999J0D01*
G01*
X66049999Y-65475000D01*
G75*
G02*
X65800000Y-65225001I0J249999D01*
G01*
X65800000Y-64574999D01*
G75*
G02*
X66049999Y-64325000I249999J0D01*
G01*
G37*
G36*
G01*
X66049999Y-62275000D02*
X66950001Y-62275000D01*
G75*
G02*
X67200000Y-62524999I0J-249999D01*
G01*
X67200000Y-63175001D01*
G75*
G02*
X66950001Y-63425000I-249999J0D01*
G01*
X66049999Y-63425000D01*
G75*
G02*
X65800000Y-63175001I0J249999D01*
G01*
X65800000Y-62524999D01*
G75*
G02*
X66049999Y-62275000I249999J0D01*
G01*
G37*
%TD*%
%TO.C,C54*%
G36*
G01*
X47025000Y-71850001D02*
X47025000Y-70949999D01*
G75*
G02*
X47274999Y-70700000I249999J0D01*
G01*
X47925001Y-70700000D01*
G75*
G02*
X48175000Y-70949999I0J-249999D01*
G01*
X48175000Y-71850001D01*
G75*
G02*
X47925001Y-72100000I-249999J0D01*
G01*
X47274999Y-72100000D01*
G75*
G02*
X47025000Y-71850001I0J249999D01*
G01*
G37*
G36*
G01*
X44975000Y-71850001D02*
X44975000Y-70949999D01*
G75*
G02*
X45224999Y-70700000I249999J0D01*
G01*
X45875001Y-70700000D01*
G75*
G02*
X46125000Y-70949999I0J-249999D01*
G01*
X46125000Y-71850001D01*
G75*
G02*
X45875001Y-72100000I-249999J0D01*
G01*
X45224999Y-72100000D01*
G75*
G02*
X44975000Y-71850001I0J249999D01*
G01*
G37*
%TD*%
%TO.C,C55*%
G36*
G01*
X64149999Y-62275000D02*
X65050001Y-62275000D01*
G75*
G02*
X65300000Y-62524999I0J-249999D01*
G01*
X65300000Y-63175001D01*
G75*
G02*
X65050001Y-63425000I-249999J0D01*
G01*
X64149999Y-63425000D01*
G75*
G02*
X63900000Y-63175001I0J249999D01*
G01*
X63900000Y-62524999D01*
G75*
G02*
X64149999Y-62275000I249999J0D01*
G01*
G37*
G36*
G01*
X64149999Y-64325000D02*
X65050001Y-64325000D01*
G75*
G02*
X65300000Y-64574999I0J-249999D01*
G01*
X65300000Y-65225001D01*
G75*
G02*
X65050001Y-65475000I-249999J0D01*
G01*
X64149999Y-65475000D01*
G75*
G02*
X63900000Y-65225001I0J249999D01*
G01*
X63900000Y-64574999D01*
G75*
G02*
X64149999Y-64325000I249999J0D01*
G01*
G37*
%TD*%
%TO.C,C56*%
G36*
G01*
X44975000Y-73750001D02*
X44975000Y-72849999D01*
G75*
G02*
X45224999Y-72600000I249999J0D01*
G01*
X45875001Y-72600000D01*
G75*
G02*
X46125000Y-72849999I0J-249999D01*
G01*
X46125000Y-73750001D01*
G75*
G02*
X45875001Y-74000000I-249999J0D01*
G01*
X45224999Y-74000000D01*
G75*
G02*
X44975000Y-73750001I0J249999D01*
G01*
G37*
G36*
G01*
X47025000Y-73750001D02*
X47025000Y-72849999D01*
G75*
G02*
X47274999Y-72600000I249999J0D01*
G01*
X47925001Y-72600000D01*
G75*
G02*
X48175000Y-72849999I0J-249999D01*
G01*
X48175000Y-73750001D01*
G75*
G02*
X47925001Y-74000000I-249999J0D01*
G01*
X47274999Y-74000000D01*
G75*
G02*
X47025000Y-73750001I0J249999D01*
G01*
G37*
%TD*%
%TO.C,C57*%
G36*
G01*
X40075000Y-70649999D02*
X40075000Y-71550001D01*
G75*
G02*
X39825001Y-71800000I-249999J0D01*
G01*
X39174999Y-71800000D01*
G75*
G02*
X38925000Y-71550001I0J249999D01*
G01*
X38925000Y-70649999D01*
G75*
G02*
X39174999Y-70400000I249999J0D01*
G01*
X39825001Y-70400000D01*
G75*
G02*
X40075000Y-70649999I0J-249999D01*
G01*
G37*
G36*
G01*
X42125000Y-70649999D02*
X42125000Y-71550001D01*
G75*
G02*
X41875001Y-71800000I-249999J0D01*
G01*
X41224999Y-71800000D01*
G75*
G02*
X40975000Y-71550001I0J249999D01*
G01*
X40975000Y-70649999D01*
G75*
G02*
X41224999Y-70400000I249999J0D01*
G01*
X41875001Y-70400000D01*
G75*
G02*
X42125000Y-70649999I0J-249999D01*
G01*
G37*
%TD*%
%TO.C,C59*%
G36*
G01*
X76624166Y-73787500D02*
X76149166Y-73787500D01*
G75*
G02*
X75911666Y-73550000I0J237500D01*
G01*
X75911666Y-72975000D01*
G75*
G02*
X76149166Y-72737500I237500J0D01*
G01*
X76624166Y-72737500D01*
G75*
G02*
X76861666Y-72975000I0J-237500D01*
G01*
X76861666Y-73550000D01*
G75*
G02*
X76624166Y-73787500I-237500J0D01*
G01*
G37*
G36*
G01*
X76624166Y-72037500D02*
X76149166Y-72037500D01*
G75*
G02*
X75911666Y-71800000I0J237500D01*
G01*
X75911666Y-71225000D01*
G75*
G02*
X76149166Y-70987500I237500J0D01*
G01*
X76624166Y-70987500D01*
G75*
G02*
X76861666Y-71225000I0J-237500D01*
G01*
X76861666Y-71800000D01*
G75*
G02*
X76624166Y-72037500I-237500J0D01*
G01*
G37*
%TD*%
%TO.C,C61*%
G36*
G01*
X68375000Y-40550001D02*
X68375000Y-39649999D01*
G75*
G02*
X68624999Y-39400000I249999J0D01*
G01*
X69275001Y-39400000D01*
G75*
G02*
X69525000Y-39649999I0J-249999D01*
G01*
X69525000Y-40550001D01*
G75*
G02*
X69275001Y-40800000I-249999J0D01*
G01*
X68624999Y-40800000D01*
G75*
G02*
X68375000Y-40550001I0J249999D01*
G01*
G37*
G36*
G01*
X70425000Y-40550001D02*
X70425000Y-39649999D01*
G75*
G02*
X70674999Y-39400000I249999J0D01*
G01*
X71325001Y-39400000D01*
G75*
G02*
X71575000Y-39649999I0J-249999D01*
G01*
X71575000Y-40550001D01*
G75*
G02*
X71325001Y-40800000I-249999J0D01*
G01*
X70674999Y-40800000D01*
G75*
G02*
X70425000Y-40550001I0J249999D01*
G01*
G37*
%TD*%
%TO.C,C68*%
G36*
G01*
X137162499Y-86250000D02*
X137637499Y-86250000D01*
G75*
G02*
X137874999Y-86487500I0J-237500D01*
G01*
X137874999Y-87062500D01*
G75*
G02*
X137637499Y-87300000I-237500J0D01*
G01*
X137162499Y-87300000D01*
G75*
G02*
X136924999Y-87062500I0J237500D01*
G01*
X136924999Y-86487500D01*
G75*
G02*
X137162499Y-86250000I237500J0D01*
G01*
G37*
G36*
G01*
X137162499Y-84500000D02*
X137637499Y-84500000D01*
G75*
G02*
X137874999Y-84737500I0J-237500D01*
G01*
X137874999Y-85312500D01*
G75*
G02*
X137637499Y-85550000I-237500J0D01*
G01*
X137162499Y-85550000D01*
G75*
G02*
X136924999Y-85312500I0J237500D01*
G01*
X136924999Y-84737500D01*
G75*
G02*
X137162499Y-84500000I237500J0D01*
G01*
G37*
%TD*%
%TO.C,C70*%
G36*
G01*
X140160000Y-88082500D02*
X140160000Y-88557500D01*
G75*
G02*
X139922500Y-88795000I-237500J0D01*
G01*
X139347500Y-88795000D01*
G75*
G02*
X139110000Y-88557500I0J237500D01*
G01*
X139110000Y-88082500D01*
G75*
G02*
X139347500Y-87845000I237500J0D01*
G01*
X139922500Y-87845000D01*
G75*
G02*
X140160000Y-88082500I0J-237500D01*
G01*
G37*
G36*
G01*
X141910000Y-88082500D02*
X141910000Y-88557500D01*
G75*
G02*
X141672500Y-88795000I-237500J0D01*
G01*
X141097500Y-88795000D01*
G75*
G02*
X140860000Y-88557500I0J237500D01*
G01*
X140860000Y-88082500D01*
G75*
G02*
X141097500Y-87845000I237500J0D01*
G01*
X141672500Y-87845000D01*
G75*
G02*
X141910000Y-88082500I0J-237500D01*
G01*
G37*
%TD*%
%TO.C,C71*%
G36*
G01*
X141920000Y-89469999D02*
X141920000Y-90370001D01*
G75*
G02*
X141670001Y-90620000I-249999J0D01*
G01*
X141019999Y-90620000D01*
G75*
G02*
X140770000Y-90370001I0J249999D01*
G01*
X140770000Y-89469999D01*
G75*
G02*
X141019999Y-89220000I249999J0D01*
G01*
X141670001Y-89220000D01*
G75*
G02*
X141920000Y-89469999I0J-249999D01*
G01*
G37*
G36*
G01*
X139870000Y-89469999D02*
X139870000Y-90370001D01*
G75*
G02*
X139620001Y-90620000I-249999J0D01*
G01*
X138969999Y-90620000D01*
G75*
G02*
X138720000Y-90370001I0J249999D01*
G01*
X138720000Y-89469999D01*
G75*
G02*
X138969999Y-89220000I249999J0D01*
G01*
X139620001Y-89220000D01*
G75*
G02*
X139870000Y-89469999I0J-249999D01*
G01*
G37*
%TD*%
%TO.C,C81*%
G36*
G01*
X127532500Y-48915000D02*
X128007500Y-48915000D01*
G75*
G02*
X128245000Y-49152500I0J-237500D01*
G01*
X128245000Y-49727500D01*
G75*
G02*
X128007500Y-49965000I-237500J0D01*
G01*
X127532500Y-49965000D01*
G75*
G02*
X127295000Y-49727500I0J237500D01*
G01*
X127295000Y-49152500D01*
G75*
G02*
X127532500Y-48915000I237500J0D01*
G01*
G37*
G36*
G01*
X127532500Y-50665000D02*
X128007500Y-50665000D01*
G75*
G02*
X128245000Y-50902500I0J-237500D01*
G01*
X128245000Y-51477500D01*
G75*
G02*
X128007500Y-51715000I-237500J0D01*
G01*
X127532500Y-51715000D01*
G75*
G02*
X127295000Y-51477500I0J237500D01*
G01*
X127295000Y-50902500D01*
G75*
G02*
X127532500Y-50665000I237500J0D01*
G01*
G37*
%TD*%
%TO.C,C82*%
G36*
G01*
X126032500Y-50665000D02*
X126507500Y-50665000D01*
G75*
G02*
X126745000Y-50902500I0J-237500D01*
G01*
X126745000Y-51477500D01*
G75*
G02*
X126507500Y-51715000I-237500J0D01*
G01*
X126032500Y-51715000D01*
G75*
G02*
X125795000Y-51477500I0J237500D01*
G01*
X125795000Y-50902500D01*
G75*
G02*
X126032500Y-50665000I237500J0D01*
G01*
G37*
G36*
G01*
X126032500Y-48915000D02*
X126507500Y-48915000D01*
G75*
G02*
X126745000Y-49152500I0J-237500D01*
G01*
X126745000Y-49727500D01*
G75*
G02*
X126507500Y-49965000I-237500J0D01*
G01*
X126032500Y-49965000D01*
G75*
G02*
X125795000Y-49727500I0J237500D01*
G01*
X125795000Y-49152500D01*
G75*
G02*
X126032500Y-48915000I237500J0D01*
G01*
G37*
%TD*%
%TO.C,C83*%
G36*
G01*
X97162500Y-51525000D02*
X97637500Y-51525000D01*
G75*
G02*
X97875000Y-51762500I0J-237500D01*
G01*
X97875000Y-52337500D01*
G75*
G02*
X97637500Y-52575000I-237500J0D01*
G01*
X97162500Y-52575000D01*
G75*
G02*
X96925000Y-52337500I0J237500D01*
G01*
X96925000Y-51762500D01*
G75*
G02*
X97162500Y-51525000I237500J0D01*
G01*
G37*
G36*
G01*
X97162500Y-53275000D02*
X97637500Y-53275000D01*
G75*
G02*
X97875000Y-53512500I0J-237500D01*
G01*
X97875000Y-54087500D01*
G75*
G02*
X97637500Y-54325000I-237500J0D01*
G01*
X97162500Y-54325000D01*
G75*
G02*
X96925000Y-54087500I0J237500D01*
G01*
X96925000Y-53512500D01*
G75*
G02*
X97162500Y-53275000I237500J0D01*
G01*
G37*
%TD*%
%TO.C,C84*%
G36*
G01*
X105537500Y-54275000D02*
X105062500Y-54275000D01*
G75*
G02*
X104825000Y-54037500I0J237500D01*
G01*
X104825000Y-53462500D01*
G75*
G02*
X105062500Y-53225000I237500J0D01*
G01*
X105537500Y-53225000D01*
G75*
G02*
X105775000Y-53462500I0J-237500D01*
G01*
X105775000Y-54037500D01*
G75*
G02*
X105537500Y-54275000I-237500J0D01*
G01*
G37*
G36*
G01*
X105537500Y-52525000D02*
X105062500Y-52525000D01*
G75*
G02*
X104825000Y-52287500I0J237500D01*
G01*
X104825000Y-51712500D01*
G75*
G02*
X105062500Y-51475000I237500J0D01*
G01*
X105537500Y-51475000D01*
G75*
G02*
X105775000Y-51712500I0J-237500D01*
G01*
X105775000Y-52287500D01*
G75*
G02*
X105537500Y-52525000I-237500J0D01*
G01*
G37*
%TD*%
%TO.C,C85*%
G36*
G01*
X98662500Y-53275000D02*
X99137500Y-53275000D01*
G75*
G02*
X99375000Y-53512500I0J-237500D01*
G01*
X99375000Y-54087500D01*
G75*
G02*
X99137500Y-54325000I-237500J0D01*
G01*
X98662500Y-54325000D01*
G75*
G02*
X98425000Y-54087500I0J237500D01*
G01*
X98425000Y-53512500D01*
G75*
G02*
X98662500Y-53275000I237500J0D01*
G01*
G37*
G36*
G01*
X98662500Y-51525000D02*
X99137500Y-51525000D01*
G75*
G02*
X99375000Y-51762500I0J-237500D01*
G01*
X99375000Y-52337500D01*
G75*
G02*
X99137500Y-52575000I-237500J0D01*
G01*
X98662500Y-52575000D01*
G75*
G02*
X98425000Y-52337500I0J237500D01*
G01*
X98425000Y-51762500D01*
G75*
G02*
X98662500Y-51525000I237500J0D01*
G01*
G37*
%TD*%
%TO.C,C86*%
G36*
G01*
X100149999Y-51475000D02*
X101050001Y-51475000D01*
G75*
G02*
X101300000Y-51724999I0J-249999D01*
G01*
X101300000Y-52375001D01*
G75*
G02*
X101050001Y-52625000I-249999J0D01*
G01*
X100149999Y-52625000D01*
G75*
G02*
X99900000Y-52375001I0J249999D01*
G01*
X99900000Y-51724999D01*
G75*
G02*
X100149999Y-51475000I249999J0D01*
G01*
G37*
G36*
G01*
X100149999Y-53525000D02*
X101050001Y-53525000D01*
G75*
G02*
X101300000Y-53774999I0J-249999D01*
G01*
X101300000Y-54425001D01*
G75*
G02*
X101050001Y-54675000I-249999J0D01*
G01*
X100149999Y-54675000D01*
G75*
G02*
X99900000Y-54425001I0J249999D01*
G01*
X99900000Y-53774999D01*
G75*
G02*
X100149999Y-53525000I249999J0D01*
G01*
G37*
%TD*%
%TO.C,C90*%
G36*
G01*
X119982500Y-60345000D02*
X120457500Y-60345000D01*
G75*
G02*
X120695000Y-60582500I0J-237500D01*
G01*
X120695000Y-61157500D01*
G75*
G02*
X120457500Y-61395000I-237500J0D01*
G01*
X119982500Y-61395000D01*
G75*
G02*
X119745000Y-61157500I0J237500D01*
G01*
X119745000Y-60582500D01*
G75*
G02*
X119982500Y-60345000I237500J0D01*
G01*
G37*
G36*
G01*
X119982500Y-58595000D02*
X120457500Y-58595000D01*
G75*
G02*
X120695000Y-58832500I0J-237500D01*
G01*
X120695000Y-59407500D01*
G75*
G02*
X120457500Y-59645000I-237500J0D01*
G01*
X119982500Y-59645000D01*
G75*
G02*
X119745000Y-59407500I0J237500D01*
G01*
X119745000Y-58832500D01*
G75*
G02*
X119982500Y-58595000I237500J0D01*
G01*
G37*
%TD*%
%TO.C,C91*%
G36*
G01*
X119882500Y-64570000D02*
X120357500Y-64570000D01*
G75*
G02*
X120595000Y-64807500I0J-237500D01*
G01*
X120595000Y-65382500D01*
G75*
G02*
X120357500Y-65620000I-237500J0D01*
G01*
X119882500Y-65620000D01*
G75*
G02*
X119645000Y-65382500I0J237500D01*
G01*
X119645000Y-64807500D01*
G75*
G02*
X119882500Y-64570000I237500J0D01*
G01*
G37*
G36*
G01*
X119882500Y-62820000D02*
X120357500Y-62820000D01*
G75*
G02*
X120595000Y-63057500I0J-237500D01*
G01*
X120595000Y-63632500D01*
G75*
G02*
X120357500Y-63870000I-237500J0D01*
G01*
X119882500Y-63870000D01*
G75*
G02*
X119645000Y-63632500I0J237500D01*
G01*
X119645000Y-63057500D01*
G75*
G02*
X119882500Y-62820000I237500J0D01*
G01*
G37*
%TD*%
D47*
%TO.C,D16*%
X118320000Y-73920000D03*
X116120000Y-73920000D03*
%TD*%
D53*
%TO.C,D20*%
X68900000Y-42500000D03*
X72200000Y-42500000D03*
%TD*%
%TO.C,D24*%
G36*
G01*
X136156250Y-89150000D02*
X135643750Y-89150000D01*
G75*
G02*
X135425000Y-88931250I0J218750D01*
G01*
X135425000Y-88493750D01*
G75*
G02*
X135643750Y-88275000I218750J0D01*
G01*
X136156250Y-88275000D01*
G75*
G02*
X136375000Y-88493750I0J-218750D01*
G01*
X136375000Y-88931250D01*
G75*
G02*
X136156250Y-89150000I-218750J0D01*
G01*
G37*
G36*
G01*
X136156250Y-90725000D02*
X135643750Y-90725000D01*
G75*
G02*
X135425000Y-90506250I0J218750D01*
G01*
X135425000Y-90068750D01*
G75*
G02*
X135643750Y-89850000I218750J0D01*
G01*
X136156250Y-89850000D01*
G75*
G02*
X136375000Y-90068750I0J-218750D01*
G01*
X136375000Y-90506250D01*
G75*
G02*
X136156250Y-90725000I-218750J0D01*
G01*
G37*
%TD*%
%TO.C,D25*%
G36*
G01*
X134656250Y-90725000D02*
X134143750Y-90725000D01*
G75*
G02*
X133925000Y-90506250I0J218750D01*
G01*
X133925000Y-90068750D01*
G75*
G02*
X134143750Y-89850000I218750J0D01*
G01*
X134656250Y-89850000D01*
G75*
G02*
X134875000Y-90068750I0J-218750D01*
G01*
X134875000Y-90506250D01*
G75*
G02*
X134656250Y-90725000I-218750J0D01*
G01*
G37*
G36*
G01*
X134656250Y-89150000D02*
X134143750Y-89150000D01*
G75*
G02*
X133925000Y-88931250I0J218750D01*
G01*
X133925000Y-88493750D01*
G75*
G02*
X134143750Y-88275000I218750J0D01*
G01*
X134656250Y-88275000D01*
G75*
G02*
X134875000Y-88493750I0J-218750D01*
G01*
X134875000Y-88931250D01*
G75*
G02*
X134656250Y-89150000I-218750J0D01*
G01*
G37*
%TD*%
D47*
%TO.C,D27*%
X131380000Y-44710000D03*
X133580000Y-44710000D03*
%TD*%
%TO.C,D28*%
X133620000Y-46720000D03*
X131420000Y-46720000D03*
%TD*%
%TO.C,F2*%
G36*
G01*
X43287500Y-72575000D02*
X43287500Y-73825000D01*
G75*
G02*
X43037500Y-74075000I-250000J0D01*
G01*
X42112500Y-74075000D01*
G75*
G02*
X41862500Y-73825000I0J250000D01*
G01*
X41862500Y-72575000D01*
G75*
G02*
X42112500Y-72325000I250000J0D01*
G01*
X43037500Y-72325000D01*
G75*
G02*
X43287500Y-72575000I0J-250000D01*
G01*
G37*
G36*
G01*
X40312500Y-72575000D02*
X40312500Y-73825000D01*
G75*
G02*
X40062500Y-74075000I-250000J0D01*
G01*
X39137500Y-74075000D01*
G75*
G02*
X38887500Y-73825000I0J250000D01*
G01*
X38887500Y-72575000D01*
G75*
G02*
X39137500Y-72325000I250000J0D01*
G01*
X40062500Y-72325000D01*
G75*
G02*
X40312500Y-72575000I0J-250000D01*
G01*
G37*
%TD*%
%TO.C,F4*%
G36*
G01*
X130290000Y-43995000D02*
X130290000Y-45245000D01*
G75*
G02*
X130040000Y-45495000I-250000J0D01*
G01*
X129115000Y-45495000D01*
G75*
G02*
X128865000Y-45245000I0J250000D01*
G01*
X128865000Y-43995000D01*
G75*
G02*
X129115000Y-43745000I250000J0D01*
G01*
X130040000Y-43745000D01*
G75*
G02*
X130290000Y-43995000I0J-250000D01*
G01*
G37*
G36*
G01*
X127315000Y-43995000D02*
X127315000Y-45245000D01*
G75*
G02*
X127065000Y-45495000I-250000J0D01*
G01*
X126140000Y-45495000D01*
G75*
G02*
X125890000Y-45245000I0J250000D01*
G01*
X125890000Y-43995000D01*
G75*
G02*
X126140000Y-43745000I250000J0D01*
G01*
X127065000Y-43745000D01*
G75*
G02*
X127315000Y-43995000I0J-250000D01*
G01*
G37*
%TD*%
%TO.C,F3*%
G36*
G01*
X127232500Y-46395000D02*
X127232500Y-47645000D01*
G75*
G02*
X126982500Y-47895000I-250000J0D01*
G01*
X126057500Y-47895000D01*
G75*
G02*
X125807500Y-47645000I0J250000D01*
G01*
X125807500Y-46395000D01*
G75*
G02*
X126057500Y-46145000I250000J0D01*
G01*
X126982500Y-46145000D01*
G75*
G02*
X127232500Y-46395000I0J-250000D01*
G01*
G37*
G36*
G01*
X130207500Y-46395000D02*
X130207500Y-47645000D01*
G75*
G02*
X129957500Y-47895000I-250000J0D01*
G01*
X129032500Y-47895000D01*
G75*
G02*
X128782500Y-47645000I0J250000D01*
G01*
X128782500Y-46395000D01*
G75*
G02*
X129032500Y-46145000I250000J0D01*
G01*
X129957500Y-46145000D01*
G75*
G02*
X130207500Y-46395000I0J-250000D01*
G01*
G37*
%TD*%
%TO.C,L1*%
G36*
G01*
X63975000Y-69450450D02*
X63975000Y-68349550D01*
G75*
G02*
X64224550Y-68100000I249550J0D01*
G01*
X64875450Y-68100000D01*
G75*
G02*
X65125000Y-68349550I0J-249550D01*
G01*
X65125000Y-69450450D01*
G75*
G02*
X64875450Y-69700000I-249550J0D01*
G01*
X64224550Y-69700000D01*
G75*
G02*
X63975000Y-69450450I0J249550D01*
G01*
G37*
G36*
G01*
X66025000Y-69450450D02*
X66025000Y-68349550D01*
G75*
G02*
X66274550Y-68100000I249550J0D01*
G01*
X66925450Y-68100000D01*
G75*
G02*
X67175000Y-68349550I0J-249550D01*
G01*
X67175000Y-69450450D01*
G75*
G02*
X66925450Y-69700000I-249550J0D01*
G01*
X66274550Y-69700000D01*
G75*
G02*
X66025000Y-69450450I0J249550D01*
G01*
G37*
%TD*%
D54*
%TO.C,L2*%
X52600000Y-68800000D03*
X52600000Y-73300002D03*
%TD*%
%TO.C,L3*%
G36*
G01*
X61075000Y-61150450D02*
X61075000Y-60049550D01*
G75*
G02*
X61324550Y-59800000I249550J0D01*
G01*
X61975450Y-59800000D01*
G75*
G02*
X62225000Y-60049550I0J-249550D01*
G01*
X62225000Y-61150450D01*
G75*
G02*
X61975450Y-61400000I-249550J0D01*
G01*
X61324550Y-61400000D01*
G75*
G02*
X61075000Y-61150450I0J249550D01*
G01*
G37*
G36*
G01*
X59025000Y-61150450D02*
X59025000Y-60049550D01*
G75*
G02*
X59274550Y-59800000I249550J0D01*
G01*
X59925450Y-59800000D01*
G75*
G02*
X60175000Y-60049550I0J-249550D01*
G01*
X60175000Y-61150450D01*
G75*
G02*
X59925450Y-61400000I-249550J0D01*
G01*
X59274550Y-61400000D01*
G75*
G02*
X59025000Y-61150450I0J249550D01*
G01*
G37*
%TD*%
D55*
%TO.C,Q3*%
X121620000Y-70220000D03*
X119620000Y-71170000D03*
X119620000Y-69270000D03*
%TD*%
%TO.C,R32*%
G36*
G01*
X87967500Y-41795000D02*
X87492500Y-41795000D01*
G75*
G02*
X87255000Y-41557500I0J237500D01*
G01*
X87255000Y-40982500D01*
G75*
G02*
X87492500Y-40745000I237500J0D01*
G01*
X87967500Y-40745000D01*
G75*
G02*
X88205000Y-40982500I0J-237500D01*
G01*
X88205000Y-41557500D01*
G75*
G02*
X87967500Y-41795000I-237500J0D01*
G01*
G37*
G36*
G01*
X87967500Y-40045000D02*
X87492500Y-40045000D01*
G75*
G02*
X87255000Y-39807500I0J237500D01*
G01*
X87255000Y-39232500D01*
G75*
G02*
X87492500Y-38995000I237500J0D01*
G01*
X87967500Y-38995000D01*
G75*
G02*
X88205000Y-39232500I0J-237500D01*
G01*
X88205000Y-39807500D01*
G75*
G02*
X87967500Y-40045000I-237500J0D01*
G01*
G37*
%TD*%
%TO.C,R33*%
G36*
G01*
X86467500Y-40045000D02*
X85992500Y-40045000D01*
G75*
G02*
X85755000Y-39807500I0J237500D01*
G01*
X85755000Y-39232500D01*
G75*
G02*
X85992500Y-38995000I237500J0D01*
G01*
X86467500Y-38995000D01*
G75*
G02*
X86705000Y-39232500I0J-237500D01*
G01*
X86705000Y-39807500D01*
G75*
G02*
X86467500Y-40045000I-237500J0D01*
G01*
G37*
G36*
G01*
X86467500Y-41795000D02*
X85992500Y-41795000D01*
G75*
G02*
X85755000Y-41557500I0J237500D01*
G01*
X85755000Y-40982500D01*
G75*
G02*
X85992500Y-40745000I237500J0D01*
G01*
X86467500Y-40745000D01*
G75*
G02*
X86705000Y-40982500I0J-237500D01*
G01*
X86705000Y-41557500D01*
G75*
G02*
X86467500Y-41795000I-237500J0D01*
G01*
G37*
%TD*%
%TO.C,R35*%
G36*
G01*
X82067500Y-57860000D02*
X81592500Y-57860000D01*
G75*
G02*
X81355000Y-57622500I0J237500D01*
G01*
X81355000Y-57047500D01*
G75*
G02*
X81592500Y-56810000I237500J0D01*
G01*
X82067500Y-56810000D01*
G75*
G02*
X82305000Y-57047500I0J-237500D01*
G01*
X82305000Y-57622500D01*
G75*
G02*
X82067500Y-57860000I-237500J0D01*
G01*
G37*
G36*
G01*
X82067500Y-59610000D02*
X81592500Y-59610000D01*
G75*
G02*
X81355000Y-59372500I0J237500D01*
G01*
X81355000Y-58797500D01*
G75*
G02*
X81592500Y-58560000I237500J0D01*
G01*
X82067500Y-58560000D01*
G75*
G02*
X82305000Y-58797500I0J-237500D01*
G01*
X82305000Y-59372500D01*
G75*
G02*
X82067500Y-59610000I-237500J0D01*
G01*
G37*
%TD*%
%TO.C,R36*%
G36*
G01*
X124645000Y-70157500D02*
X124645000Y-69682500D01*
G75*
G02*
X124882500Y-69445000I237500J0D01*
G01*
X125457500Y-69445000D01*
G75*
G02*
X125695000Y-69682500I0J-237500D01*
G01*
X125695000Y-70157500D01*
G75*
G02*
X125457500Y-70395000I-237500J0D01*
G01*
X124882500Y-70395000D01*
G75*
G02*
X124645000Y-70157500I0J237500D01*
G01*
G37*
G36*
G01*
X122895000Y-70157500D02*
X122895000Y-69682500D01*
G75*
G02*
X123132500Y-69445000I237500J0D01*
G01*
X123707500Y-69445000D01*
G75*
G02*
X123945000Y-69682500I0J-237500D01*
G01*
X123945000Y-70157500D01*
G75*
G02*
X123707500Y-70395000I-237500J0D01*
G01*
X123132500Y-70395000D01*
G75*
G02*
X122895000Y-70157500I0J237500D01*
G01*
G37*
%TD*%
%TO.C,R37*%
G36*
G01*
X117857500Y-71620000D02*
X117382500Y-71620000D01*
G75*
G02*
X117145000Y-71382500I0J237500D01*
G01*
X117145000Y-70807500D01*
G75*
G02*
X117382500Y-70570000I237500J0D01*
G01*
X117857500Y-70570000D01*
G75*
G02*
X118095000Y-70807500I0J-237500D01*
G01*
X118095000Y-71382500D01*
G75*
G02*
X117857500Y-71620000I-237500J0D01*
G01*
G37*
G36*
G01*
X117857500Y-69870000D02*
X117382500Y-69870000D01*
G75*
G02*
X117145000Y-69632500I0J237500D01*
G01*
X117145000Y-69057500D01*
G75*
G02*
X117382500Y-68820000I237500J0D01*
G01*
X117857500Y-68820000D01*
G75*
G02*
X118095000Y-69057500I0J-237500D01*
G01*
X118095000Y-69632500D01*
G75*
G02*
X117857500Y-69870000I-237500J0D01*
G01*
G37*
%TD*%
%TO.C,R38*%
G36*
G01*
X116437500Y-69870000D02*
X115962500Y-69870000D01*
G75*
G02*
X115725000Y-69632500I0J237500D01*
G01*
X115725000Y-69057500D01*
G75*
G02*
X115962500Y-68820000I237500J0D01*
G01*
X116437500Y-68820000D01*
G75*
G02*
X116675000Y-69057500I0J-237500D01*
G01*
X116675000Y-69632500D01*
G75*
G02*
X116437500Y-69870000I-237500J0D01*
G01*
G37*
G36*
G01*
X116437500Y-71620000D02*
X115962500Y-71620000D01*
G75*
G02*
X115725000Y-71382500I0J237500D01*
G01*
X115725000Y-70807500D01*
G75*
G02*
X115962500Y-70570000I237500J0D01*
G01*
X116437500Y-70570000D01*
G75*
G02*
X116675000Y-70807500I0J-237500D01*
G01*
X116675000Y-71382500D01*
G75*
G02*
X116437500Y-71620000I-237500J0D01*
G01*
G37*
%TD*%
%TO.C,R47*%
G36*
G01*
X58275000Y-71862500D02*
X58275000Y-72337500D01*
G75*
G02*
X58037500Y-72575000I-237500J0D01*
G01*
X57462500Y-72575000D01*
G75*
G02*
X57225000Y-72337500I0J237500D01*
G01*
X57225000Y-71862500D01*
G75*
G02*
X57462500Y-71625000I237500J0D01*
G01*
X58037500Y-71625000D01*
G75*
G02*
X58275000Y-71862500I0J-237500D01*
G01*
G37*
G36*
G01*
X60025000Y-71862500D02*
X60025000Y-72337500D01*
G75*
G02*
X59787500Y-72575000I-237500J0D01*
G01*
X59212500Y-72575000D01*
G75*
G02*
X58975000Y-72337500I0J237500D01*
G01*
X58975000Y-71862500D01*
G75*
G02*
X59212500Y-71625000I237500J0D01*
G01*
X59787500Y-71625000D01*
G75*
G02*
X60025000Y-71862500I0J-237500D01*
G01*
G37*
%TD*%
%TO.C,R48*%
G36*
G01*
X41725000Y-63162500D02*
X41725000Y-63637500D01*
G75*
G02*
X41487500Y-63875000I-237500J0D01*
G01*
X40912500Y-63875000D01*
G75*
G02*
X40675000Y-63637500I0J237500D01*
G01*
X40675000Y-63162500D01*
G75*
G02*
X40912500Y-62925000I237500J0D01*
G01*
X41487500Y-62925000D01*
G75*
G02*
X41725000Y-63162500I0J-237500D01*
G01*
G37*
G36*
G01*
X39975000Y-63162500D02*
X39975000Y-63637500D01*
G75*
G02*
X39737500Y-63875000I-237500J0D01*
G01*
X39162500Y-63875000D01*
G75*
G02*
X38925000Y-63637500I0J237500D01*
G01*
X38925000Y-63162500D01*
G75*
G02*
X39162500Y-62925000I237500J0D01*
G01*
X39737500Y-62925000D01*
G75*
G02*
X39975000Y-63162500I0J-237500D01*
G01*
G37*
%TD*%
%TO.C,R49*%
G36*
G01*
X44262500Y-59225000D02*
X44737500Y-59225000D01*
G75*
G02*
X44975000Y-59462500I0J-237500D01*
G01*
X44975000Y-60037500D01*
G75*
G02*
X44737500Y-60275000I-237500J0D01*
G01*
X44262500Y-60275000D01*
G75*
G02*
X44025000Y-60037500I0J237500D01*
G01*
X44025000Y-59462500D01*
G75*
G02*
X44262500Y-59225000I237500J0D01*
G01*
G37*
G36*
G01*
X44262500Y-60975000D02*
X44737500Y-60975000D01*
G75*
G02*
X44975000Y-61212500I0J-237500D01*
G01*
X44975000Y-61787500D01*
G75*
G02*
X44737500Y-62025000I-237500J0D01*
G01*
X44262500Y-62025000D01*
G75*
G02*
X44025000Y-61787500I0J237500D01*
G01*
X44025000Y-61212500D01*
G75*
G02*
X44262500Y-60975000I237500J0D01*
G01*
G37*
%TD*%
%TO.C,R50*%
G36*
G01*
X46237500Y-60275000D02*
X45762500Y-60275000D01*
G75*
G02*
X45525000Y-60037500I0J237500D01*
G01*
X45525000Y-59462500D01*
G75*
G02*
X45762500Y-59225000I237500J0D01*
G01*
X46237500Y-59225000D01*
G75*
G02*
X46475000Y-59462500I0J-237500D01*
G01*
X46475000Y-60037500D01*
G75*
G02*
X46237500Y-60275000I-237500J0D01*
G01*
G37*
G36*
G01*
X46237500Y-62025000D02*
X45762500Y-62025000D01*
G75*
G02*
X45525000Y-61787500I0J237500D01*
G01*
X45525000Y-61212500D01*
G75*
G02*
X45762500Y-60975000I237500J0D01*
G01*
X46237500Y-60975000D01*
G75*
G02*
X46475000Y-61212500I0J-237500D01*
G01*
X46475000Y-61787500D01*
G75*
G02*
X46237500Y-62025000I-237500J0D01*
G01*
G37*
%TD*%
%TO.C,R51*%
G36*
G01*
X41725000Y-60162500D02*
X41725000Y-60637500D01*
G75*
G02*
X41487500Y-60875000I-237500J0D01*
G01*
X40912500Y-60875000D01*
G75*
G02*
X40675000Y-60637500I0J237500D01*
G01*
X40675000Y-60162500D01*
G75*
G02*
X40912500Y-59925000I237500J0D01*
G01*
X41487500Y-59925000D01*
G75*
G02*
X41725000Y-60162500I0J-237500D01*
G01*
G37*
G36*
G01*
X39975000Y-60162500D02*
X39975000Y-60637500D01*
G75*
G02*
X39737500Y-60875000I-237500J0D01*
G01*
X39162500Y-60875000D01*
G75*
G02*
X38925000Y-60637500I0J237500D01*
G01*
X38925000Y-60162500D01*
G75*
G02*
X39162500Y-59925000I237500J0D01*
G01*
X39737500Y-59925000D01*
G75*
G02*
X39975000Y-60162500I0J-237500D01*
G01*
G37*
%TD*%
%TO.C,R52*%
G36*
G01*
X40675000Y-62137500D02*
X40675000Y-61662500D01*
G75*
G02*
X40912500Y-61425000I237500J0D01*
G01*
X41487500Y-61425000D01*
G75*
G02*
X41725000Y-61662500I0J-237500D01*
G01*
X41725000Y-62137500D01*
G75*
G02*
X41487500Y-62375000I-237500J0D01*
G01*
X40912500Y-62375000D01*
G75*
G02*
X40675000Y-62137500I0J237500D01*
G01*
G37*
G36*
G01*
X38925000Y-62137500D02*
X38925000Y-61662500D01*
G75*
G02*
X39162500Y-61425000I237500J0D01*
G01*
X39737500Y-61425000D01*
G75*
G02*
X39975000Y-61662500I0J-237500D01*
G01*
X39975000Y-62137500D01*
G75*
G02*
X39737500Y-62375000I-237500J0D01*
G01*
X39162500Y-62375000D01*
G75*
G02*
X38925000Y-62137500I0J237500D01*
G01*
G37*
%TD*%
%TO.C,R53*%
G36*
G01*
X38925000Y-65137500D02*
X38925000Y-64662500D01*
G75*
G02*
X39162500Y-64425000I237500J0D01*
G01*
X39737500Y-64425000D01*
G75*
G02*
X39975000Y-64662500I0J-237500D01*
G01*
X39975000Y-65137500D01*
G75*
G02*
X39737500Y-65375000I-237500J0D01*
G01*
X39162500Y-65375000D01*
G75*
G02*
X38925000Y-65137500I0J237500D01*
G01*
G37*
G36*
G01*
X40675000Y-65137500D02*
X40675000Y-64662500D01*
G75*
G02*
X40912500Y-64425000I237500J0D01*
G01*
X41487500Y-64425000D01*
G75*
G02*
X41725000Y-64662500I0J-237500D01*
G01*
X41725000Y-65137500D01*
G75*
G02*
X41487500Y-65375000I-237500J0D01*
G01*
X40912500Y-65375000D01*
G75*
G02*
X40675000Y-65137500I0J237500D01*
G01*
G37*
%TD*%
%TO.C,R54*%
G36*
G01*
X38925000Y-69637500D02*
X38925000Y-69162500D01*
G75*
G02*
X39162500Y-68925000I237500J0D01*
G01*
X39737500Y-68925000D01*
G75*
G02*
X39975000Y-69162500I0J-237500D01*
G01*
X39975000Y-69637500D01*
G75*
G02*
X39737500Y-69875000I-237500J0D01*
G01*
X39162500Y-69875000D01*
G75*
G02*
X38925000Y-69637500I0J237500D01*
G01*
G37*
G36*
G01*
X40675000Y-69637500D02*
X40675000Y-69162500D01*
G75*
G02*
X40912500Y-68925000I237500J0D01*
G01*
X41487500Y-68925000D01*
G75*
G02*
X41725000Y-69162500I0J-237500D01*
G01*
X41725000Y-69637500D01*
G75*
G02*
X41487500Y-69875000I-237500J0D01*
G01*
X40912500Y-69875000D01*
G75*
G02*
X40675000Y-69637500I0J237500D01*
G01*
G37*
%TD*%
%TO.C,R55*%
G36*
G01*
X60562500Y-68350000D02*
X61037500Y-68350000D01*
G75*
G02*
X61275000Y-68587500I0J-237500D01*
G01*
X61275000Y-69162500D01*
G75*
G02*
X61037500Y-69400000I-237500J0D01*
G01*
X60562500Y-69400000D01*
G75*
G02*
X60325000Y-69162500I0J237500D01*
G01*
X60325000Y-68587500D01*
G75*
G02*
X60562500Y-68350000I237500J0D01*
G01*
G37*
G36*
G01*
X60562500Y-66600000D02*
X61037500Y-66600000D01*
G75*
G02*
X61275000Y-66837500I0J-237500D01*
G01*
X61275000Y-67412500D01*
G75*
G02*
X61037500Y-67650000I-237500J0D01*
G01*
X60562500Y-67650000D01*
G75*
G02*
X60325000Y-67412500I0J237500D01*
G01*
X60325000Y-66837500D01*
G75*
G02*
X60562500Y-66600000I237500J0D01*
G01*
G37*
%TD*%
%TO.C,R56*%
G36*
G01*
X39975000Y-67662500D02*
X39975000Y-68137500D01*
G75*
G02*
X39737500Y-68375000I-237500J0D01*
G01*
X39162500Y-68375000D01*
G75*
G02*
X38925000Y-68137500I0J237500D01*
G01*
X38925000Y-67662500D01*
G75*
G02*
X39162500Y-67425000I237500J0D01*
G01*
X39737500Y-67425000D01*
G75*
G02*
X39975000Y-67662500I0J-237500D01*
G01*
G37*
G36*
G01*
X41725000Y-67662500D02*
X41725000Y-68137500D01*
G75*
G02*
X41487500Y-68375000I-237500J0D01*
G01*
X40912500Y-68375000D01*
G75*
G02*
X40675000Y-68137500I0J237500D01*
G01*
X40675000Y-67662500D01*
G75*
G02*
X40912500Y-67425000I237500J0D01*
G01*
X41487500Y-67425000D01*
G75*
G02*
X41725000Y-67662500I0J-237500D01*
G01*
G37*
%TD*%
%TO.C,R57*%
G36*
G01*
X40675000Y-66637500D02*
X40675000Y-66162500D01*
G75*
G02*
X40912500Y-65925000I237500J0D01*
G01*
X41487500Y-65925000D01*
G75*
G02*
X41725000Y-66162500I0J-237500D01*
G01*
X41725000Y-66637500D01*
G75*
G02*
X41487500Y-66875000I-237500J0D01*
G01*
X40912500Y-66875000D01*
G75*
G02*
X40675000Y-66637500I0J237500D01*
G01*
G37*
G36*
G01*
X38925000Y-66637500D02*
X38925000Y-66162500D01*
G75*
G02*
X39162500Y-65925000I237500J0D01*
G01*
X39737500Y-65925000D01*
G75*
G02*
X39975000Y-66162500I0J-237500D01*
G01*
X39975000Y-66637500D01*
G75*
G02*
X39737500Y-66875000I-237500J0D01*
G01*
X39162500Y-66875000D01*
G75*
G02*
X38925000Y-66637500I0J237500D01*
G01*
G37*
%TD*%
%TO.C,R58*%
G36*
G01*
X53375000Y-64762500D02*
X53375000Y-65237500D01*
G75*
G02*
X53137500Y-65475000I-237500J0D01*
G01*
X52562500Y-65475000D01*
G75*
G02*
X52325000Y-65237500I0J237500D01*
G01*
X52325000Y-64762500D01*
G75*
G02*
X52562500Y-64525000I237500J0D01*
G01*
X53137500Y-64525000D01*
G75*
G02*
X53375000Y-64762500I0J-237500D01*
G01*
G37*
G36*
G01*
X51625000Y-64762500D02*
X51625000Y-65237500D01*
G75*
G02*
X51387500Y-65475000I-237500J0D01*
G01*
X50812500Y-65475000D01*
G75*
G02*
X50575000Y-65237500I0J237500D01*
G01*
X50575000Y-64762500D01*
G75*
G02*
X50812500Y-64525000I237500J0D01*
G01*
X51387500Y-64525000D01*
G75*
G02*
X51625000Y-64762500I0J-237500D01*
G01*
G37*
%TD*%
%TO.C,R59*%
G36*
G01*
X59537500Y-69400000D02*
X59062500Y-69400000D01*
G75*
G02*
X58825000Y-69162500I0J237500D01*
G01*
X58825000Y-68587500D01*
G75*
G02*
X59062500Y-68350000I237500J0D01*
G01*
X59537500Y-68350000D01*
G75*
G02*
X59775000Y-68587500I0J-237500D01*
G01*
X59775000Y-69162500D01*
G75*
G02*
X59537500Y-69400000I-237500J0D01*
G01*
G37*
G36*
G01*
X59537500Y-67650000D02*
X59062500Y-67650000D01*
G75*
G02*
X58825000Y-67412500I0J237500D01*
G01*
X58825000Y-66837500D01*
G75*
G02*
X59062500Y-66600000I237500J0D01*
G01*
X59537500Y-66600000D01*
G75*
G02*
X59775000Y-66837500I0J-237500D01*
G01*
X59775000Y-67412500D01*
G75*
G02*
X59537500Y-67650000I-237500J0D01*
G01*
G37*
%TD*%
%TO.C,R66*%
G36*
G01*
X73537500Y-73787500D02*
X73062500Y-73787500D01*
G75*
G02*
X72825000Y-73550000I0J237500D01*
G01*
X72825000Y-73050000D01*
G75*
G02*
X73062500Y-72812500I237500J0D01*
G01*
X73537500Y-72812500D01*
G75*
G02*
X73775000Y-73050000I0J-237500D01*
G01*
X73775000Y-73550000D01*
G75*
G02*
X73537500Y-73787500I-237500J0D01*
G01*
G37*
G36*
G01*
X73537500Y-71962500D02*
X73062500Y-71962500D01*
G75*
G02*
X72825000Y-71725000I0J237500D01*
G01*
X72825000Y-71225000D01*
G75*
G02*
X73062500Y-70987500I237500J0D01*
G01*
X73537500Y-70987500D01*
G75*
G02*
X73775000Y-71225000I0J-237500D01*
G01*
X73775000Y-71725000D01*
G75*
G02*
X73537500Y-71962500I-237500J0D01*
G01*
G37*
%TD*%
%TO.C,R67*%
G36*
G01*
X74605833Y-72812500D02*
X75080833Y-72812500D01*
G75*
G02*
X75318333Y-73050000I0J-237500D01*
G01*
X75318333Y-73550000D01*
G75*
G02*
X75080833Y-73787500I-237500J0D01*
G01*
X74605833Y-73787500D01*
G75*
G02*
X74368333Y-73550000I0J237500D01*
G01*
X74368333Y-73050000D01*
G75*
G02*
X74605833Y-72812500I237500J0D01*
G01*
G37*
G36*
G01*
X74605833Y-70987500D02*
X75080833Y-70987500D01*
G75*
G02*
X75318333Y-71225000I0J-237500D01*
G01*
X75318333Y-71725000D01*
G75*
G02*
X75080833Y-71962500I-237500J0D01*
G01*
X74605833Y-71962500D01*
G75*
G02*
X74368333Y-71725000I0J237500D01*
G01*
X74368333Y-71225000D01*
G75*
G02*
X74605833Y-70987500I237500J0D01*
G01*
G37*
%TD*%
%TO.C,R68*%
G36*
G01*
X84662500Y-72812500D02*
X85137500Y-72812500D01*
G75*
G02*
X85375000Y-73050000I0J-237500D01*
G01*
X85375000Y-73550000D01*
G75*
G02*
X85137500Y-73787500I-237500J0D01*
G01*
X84662500Y-73787500D01*
G75*
G02*
X84425000Y-73550000I0J237500D01*
G01*
X84425000Y-73050000D01*
G75*
G02*
X84662500Y-72812500I237500J0D01*
G01*
G37*
G36*
G01*
X84662500Y-70987500D02*
X85137500Y-70987500D01*
G75*
G02*
X85375000Y-71225000I0J-237500D01*
G01*
X85375000Y-71725000D01*
G75*
G02*
X85137500Y-71962500I-237500J0D01*
G01*
X84662500Y-71962500D01*
G75*
G02*
X84425000Y-71725000I0J237500D01*
G01*
X84425000Y-71225000D01*
G75*
G02*
X84662500Y-70987500I237500J0D01*
G01*
G37*
%TD*%
%TO.C,R69*%
G36*
G01*
X78167499Y-73787500D02*
X77692499Y-73787500D01*
G75*
G02*
X77454999Y-73550000I0J237500D01*
G01*
X77454999Y-73050000D01*
G75*
G02*
X77692499Y-72812500I237500J0D01*
G01*
X78167499Y-72812500D01*
G75*
G02*
X78404999Y-73050000I0J-237500D01*
G01*
X78404999Y-73550000D01*
G75*
G02*
X78167499Y-73787500I-237500J0D01*
G01*
G37*
G36*
G01*
X78167499Y-71962500D02*
X77692499Y-71962500D01*
G75*
G02*
X77454999Y-71725000I0J237500D01*
G01*
X77454999Y-71225000D01*
G75*
G02*
X77692499Y-70987500I237500J0D01*
G01*
X78167499Y-70987500D01*
G75*
G02*
X78404999Y-71225000I0J-237500D01*
G01*
X78404999Y-71725000D01*
G75*
G02*
X78167499Y-71962500I-237500J0D01*
G01*
G37*
%TD*%
%TO.C,R70*%
G36*
G01*
X73062500Y-64725000D02*
X73537500Y-64725000D01*
G75*
G02*
X73775000Y-64962500I0J-237500D01*
G01*
X73775000Y-65462500D01*
G75*
G02*
X73537500Y-65700000I-237500J0D01*
G01*
X73062500Y-65700000D01*
G75*
G02*
X72825000Y-65462500I0J237500D01*
G01*
X72825000Y-64962500D01*
G75*
G02*
X73062500Y-64725000I237500J0D01*
G01*
G37*
G36*
G01*
X73062500Y-62900000D02*
X73537500Y-62900000D01*
G75*
G02*
X73775000Y-63137500I0J-237500D01*
G01*
X73775000Y-63637500D01*
G75*
G02*
X73537500Y-63875000I-237500J0D01*
G01*
X73062500Y-63875000D01*
G75*
G02*
X72825000Y-63637500I0J237500D01*
G01*
X72825000Y-63137500D01*
G75*
G02*
X73062500Y-62900000I237500J0D01*
G01*
G37*
%TD*%
%TO.C,R71*%
G36*
G01*
X76062500Y-62900000D02*
X76537500Y-62900000D01*
G75*
G02*
X76775000Y-63137500I0J-237500D01*
G01*
X76775000Y-63637500D01*
G75*
G02*
X76537500Y-63875000I-237500J0D01*
G01*
X76062500Y-63875000D01*
G75*
G02*
X75825000Y-63637500I0J237500D01*
G01*
X75825000Y-63137500D01*
G75*
G02*
X76062500Y-62900000I237500J0D01*
G01*
G37*
G36*
G01*
X76062500Y-64725000D02*
X76537500Y-64725000D01*
G75*
G02*
X76775000Y-64962500I0J-237500D01*
G01*
X76775000Y-65462500D01*
G75*
G02*
X76537500Y-65700000I-237500J0D01*
G01*
X76062500Y-65700000D01*
G75*
G02*
X75825000Y-65462500I0J237500D01*
G01*
X75825000Y-64962500D01*
G75*
G02*
X76062500Y-64725000I237500J0D01*
G01*
G37*
%TD*%
%TO.C,R72*%
G36*
G01*
X75072500Y-65700000D02*
X74597500Y-65700000D01*
G75*
G02*
X74360000Y-65462500I0J237500D01*
G01*
X74360000Y-64962500D01*
G75*
G02*
X74597500Y-64725000I237500J0D01*
G01*
X75072500Y-64725000D01*
G75*
G02*
X75310000Y-64962500I0J-237500D01*
G01*
X75310000Y-65462500D01*
G75*
G02*
X75072500Y-65700000I-237500J0D01*
G01*
G37*
G36*
G01*
X75072500Y-63875000D02*
X74597500Y-63875000D01*
G75*
G02*
X74360000Y-63637500I0J237500D01*
G01*
X74360000Y-63137500D01*
G75*
G02*
X74597500Y-62900000I237500J0D01*
G01*
X75072500Y-62900000D01*
G75*
G02*
X75310000Y-63137500I0J-237500D01*
G01*
X75310000Y-63637500D01*
G75*
G02*
X75072500Y-63875000I-237500J0D01*
G01*
G37*
%TD*%
%TO.C,R73*%
G36*
G01*
X77737500Y-69700000D02*
X77262500Y-69700000D01*
G75*
G02*
X77025000Y-69462500I0J237500D01*
G01*
X77025000Y-68962500D01*
G75*
G02*
X77262500Y-68725000I237500J0D01*
G01*
X77737500Y-68725000D01*
G75*
G02*
X77975000Y-68962500I0J-237500D01*
G01*
X77975000Y-69462500D01*
G75*
G02*
X77737500Y-69700000I-237500J0D01*
G01*
G37*
G36*
G01*
X77737500Y-67875000D02*
X77262500Y-67875000D01*
G75*
G02*
X77025000Y-67637500I0J237500D01*
G01*
X77025000Y-67137500D01*
G75*
G02*
X77262500Y-66900000I237500J0D01*
G01*
X77737500Y-66900000D01*
G75*
G02*
X77975000Y-67137500I0J-237500D01*
G01*
X77975000Y-67637500D01*
G75*
G02*
X77737500Y-67875000I-237500J0D01*
G01*
G37*
%TD*%
%TO.C,R74*%
G36*
G01*
X78662500Y-68725000D02*
X79137500Y-68725000D01*
G75*
G02*
X79375000Y-68962500I0J-237500D01*
G01*
X79375000Y-69462500D01*
G75*
G02*
X79137500Y-69700000I-237500J0D01*
G01*
X78662500Y-69700000D01*
G75*
G02*
X78425000Y-69462500I0J237500D01*
G01*
X78425000Y-68962500D01*
G75*
G02*
X78662500Y-68725000I237500J0D01*
G01*
G37*
G36*
G01*
X78662500Y-66900000D02*
X79137500Y-66900000D01*
G75*
G02*
X79375000Y-67137500I0J-237500D01*
G01*
X79375000Y-67637500D01*
G75*
G02*
X79137500Y-67875000I-237500J0D01*
G01*
X78662500Y-67875000D01*
G75*
G02*
X78425000Y-67637500I0J237500D01*
G01*
X78425000Y-67137500D01*
G75*
G02*
X78662500Y-66900000I237500J0D01*
G01*
G37*
%TD*%
%TO.C,R76*%
G36*
G01*
X83350001Y-66100000D02*
X82449999Y-66100000D01*
G75*
G02*
X82200000Y-65850001I0J249999D01*
G01*
X82200000Y-65199999D01*
G75*
G02*
X82449999Y-64950000I249999J0D01*
G01*
X83350001Y-64950000D01*
G75*
G02*
X83600000Y-65199999I0J-249999D01*
G01*
X83600000Y-65850001D01*
G75*
G02*
X83350001Y-66100000I-249999J0D01*
G01*
G37*
G36*
G01*
X83350001Y-64050000D02*
X82449999Y-64050000D01*
G75*
G02*
X82200000Y-63800001I0J249999D01*
G01*
X82200000Y-63149999D01*
G75*
G02*
X82449999Y-62900000I249999J0D01*
G01*
X83350001Y-62900000D01*
G75*
G02*
X83600000Y-63149999I0J-249999D01*
G01*
X83600000Y-63800001D01*
G75*
G02*
X83350001Y-64050000I-249999J0D01*
G01*
G37*
%TD*%
%TO.C,R84*%
G36*
G01*
X138695832Y-86250000D02*
X139170832Y-86250000D01*
G75*
G02*
X139408332Y-86487500I0J-237500D01*
G01*
X139408332Y-87062500D01*
G75*
G02*
X139170832Y-87300000I-237500J0D01*
G01*
X138695832Y-87300000D01*
G75*
G02*
X138458332Y-87062500I0J237500D01*
G01*
X138458332Y-86487500D01*
G75*
G02*
X138695832Y-86250000I237500J0D01*
G01*
G37*
G36*
G01*
X138695832Y-84500000D02*
X139170832Y-84500000D01*
G75*
G02*
X139408332Y-84737500I0J-237500D01*
G01*
X139408332Y-85312500D01*
G75*
G02*
X139170832Y-85550000I-237500J0D01*
G01*
X138695832Y-85550000D01*
G75*
G02*
X138458332Y-85312500I0J237500D01*
G01*
X138458332Y-84737500D01*
G75*
G02*
X138695832Y-84500000I237500J0D01*
G01*
G37*
%TD*%
%TO.C,R87*%
G36*
G01*
X140170000Y-91182500D02*
X140170000Y-91657500D01*
G75*
G02*
X139932500Y-91895000I-237500J0D01*
G01*
X139357500Y-91895000D01*
G75*
G02*
X139120000Y-91657500I0J237500D01*
G01*
X139120000Y-91182500D01*
G75*
G02*
X139357500Y-90945000I237500J0D01*
G01*
X139932500Y-90945000D01*
G75*
G02*
X140170000Y-91182500I0J-237500D01*
G01*
G37*
G36*
G01*
X141920000Y-91182500D02*
X141920000Y-91657500D01*
G75*
G02*
X141682500Y-91895000I-237500J0D01*
G01*
X141107500Y-91895000D01*
G75*
G02*
X140870000Y-91657500I0J237500D01*
G01*
X140870000Y-91182500D01*
G75*
G02*
X141107500Y-90945000I237500J0D01*
G01*
X141682500Y-90945000D01*
G75*
G02*
X141920000Y-91182500I0J-237500D01*
G01*
G37*
%TD*%
%TO.C,R99*%
G36*
G01*
X132562500Y-86250000D02*
X133037500Y-86250000D01*
G75*
G02*
X133275000Y-86487500I0J-237500D01*
G01*
X133275000Y-87062500D01*
G75*
G02*
X133037500Y-87300000I-237500J0D01*
G01*
X132562500Y-87300000D01*
G75*
G02*
X132325000Y-87062500I0J237500D01*
G01*
X132325000Y-86487500D01*
G75*
G02*
X132562500Y-86250000I237500J0D01*
G01*
G37*
G36*
G01*
X132562500Y-84500000D02*
X133037500Y-84500000D01*
G75*
G02*
X133275000Y-84737500I0J-237500D01*
G01*
X133275000Y-85312500D01*
G75*
G02*
X133037500Y-85550000I-237500J0D01*
G01*
X132562500Y-85550000D01*
G75*
G02*
X132325000Y-85312500I0J237500D01*
G01*
X132325000Y-84737500D01*
G75*
G02*
X132562500Y-84500000I237500J0D01*
G01*
G37*
%TD*%
%TO.C,R100*%
G36*
G01*
X134095833Y-86250000D02*
X134570833Y-86250000D01*
G75*
G02*
X134808333Y-86487500I0J-237500D01*
G01*
X134808333Y-87062500D01*
G75*
G02*
X134570833Y-87300000I-237500J0D01*
G01*
X134095833Y-87300000D01*
G75*
G02*
X133858333Y-87062500I0J237500D01*
G01*
X133858333Y-86487500D01*
G75*
G02*
X134095833Y-86250000I237500J0D01*
G01*
G37*
G36*
G01*
X134095833Y-84500000D02*
X134570833Y-84500000D01*
G75*
G02*
X134808333Y-84737500I0J-237500D01*
G01*
X134808333Y-85312500D01*
G75*
G02*
X134570833Y-85550000I-237500J0D01*
G01*
X134095833Y-85550000D01*
G75*
G02*
X133858333Y-85312500I0J237500D01*
G01*
X133858333Y-84737500D01*
G75*
G02*
X134095833Y-84500000I237500J0D01*
G01*
G37*
%TD*%
%TO.C,R107*%
G36*
G01*
X127857500Y-53695000D02*
X127382500Y-53695000D01*
G75*
G02*
X127145000Y-53457500I0J237500D01*
G01*
X127145000Y-52882500D01*
G75*
G02*
X127382500Y-52645000I237500J0D01*
G01*
X127857500Y-52645000D01*
G75*
G02*
X128095000Y-52882500I0J-237500D01*
G01*
X128095000Y-53457500D01*
G75*
G02*
X127857500Y-53695000I-237500J0D01*
G01*
G37*
G36*
G01*
X127857500Y-55445000D02*
X127382500Y-55445000D01*
G75*
G02*
X127145000Y-55207500I0J237500D01*
G01*
X127145000Y-54632500D01*
G75*
G02*
X127382500Y-54395000I237500J0D01*
G01*
X127857500Y-54395000D01*
G75*
G02*
X128095000Y-54632500I0J-237500D01*
G01*
X128095000Y-55207500D01*
G75*
G02*
X127857500Y-55445000I-237500J0D01*
G01*
G37*
%TD*%
%TO.C,R108*%
G36*
G01*
X111857500Y-59845000D02*
X111382500Y-59845000D01*
G75*
G02*
X111145000Y-59607500I0J237500D01*
G01*
X111145000Y-59032500D01*
G75*
G02*
X111382500Y-58795000I237500J0D01*
G01*
X111857500Y-58795000D01*
G75*
G02*
X112095000Y-59032500I0J-237500D01*
G01*
X112095000Y-59607500D01*
G75*
G02*
X111857500Y-59845000I-237500J0D01*
G01*
G37*
G36*
G01*
X111857500Y-58095000D02*
X111382500Y-58095000D01*
G75*
G02*
X111145000Y-57857500I0J237500D01*
G01*
X111145000Y-57282500D01*
G75*
G02*
X111382500Y-57045000I237500J0D01*
G01*
X111857500Y-57045000D01*
G75*
G02*
X112095000Y-57282500I0J-237500D01*
G01*
X112095000Y-57857500D01*
G75*
G02*
X111857500Y-58095000I-237500J0D01*
G01*
G37*
%TD*%
%TO.C,R111*%
G36*
G01*
X110457500Y-58095000D02*
X109982500Y-58095000D01*
G75*
G02*
X109745000Y-57857500I0J237500D01*
G01*
X109745000Y-57282500D01*
G75*
G02*
X109982500Y-57045000I237500J0D01*
G01*
X110457500Y-57045000D01*
G75*
G02*
X110695000Y-57282500I0J-237500D01*
G01*
X110695000Y-57857500D01*
G75*
G02*
X110457500Y-58095000I-237500J0D01*
G01*
G37*
G36*
G01*
X110457500Y-59845000D02*
X109982500Y-59845000D01*
G75*
G02*
X109745000Y-59607500I0J237500D01*
G01*
X109745000Y-59032500D01*
G75*
G02*
X109982500Y-58795000I237500J0D01*
G01*
X110457500Y-58795000D01*
G75*
G02*
X110695000Y-59032500I0J-237500D01*
G01*
X110695000Y-59607500D01*
G75*
G02*
X110457500Y-59845000I-237500J0D01*
G01*
G37*
%TD*%
%TO.C,R112*%
G36*
G01*
X126407500Y-55440000D02*
X125932500Y-55440000D01*
G75*
G02*
X125695000Y-55202500I0J237500D01*
G01*
X125695000Y-54627500D01*
G75*
G02*
X125932500Y-54390000I237500J0D01*
G01*
X126407500Y-54390000D01*
G75*
G02*
X126645000Y-54627500I0J-237500D01*
G01*
X126645000Y-55202500D01*
G75*
G02*
X126407500Y-55440000I-237500J0D01*
G01*
G37*
G36*
G01*
X126407500Y-53690000D02*
X125932500Y-53690000D01*
G75*
G02*
X125695000Y-53452500I0J237500D01*
G01*
X125695000Y-52877500D01*
G75*
G02*
X125932500Y-52640000I237500J0D01*
G01*
X126407500Y-52640000D01*
G75*
G02*
X126645000Y-52877500I0J-237500D01*
G01*
X126645000Y-53452500D01*
G75*
G02*
X126407500Y-53690000I-237500J0D01*
G01*
G37*
%TD*%
%TO.C,R113*%
G36*
G01*
X104037500Y-52525000D02*
X103562500Y-52525000D01*
G75*
G02*
X103325000Y-52287500I0J237500D01*
G01*
X103325000Y-51712500D01*
G75*
G02*
X103562500Y-51475000I237500J0D01*
G01*
X104037500Y-51475000D01*
G75*
G02*
X104275000Y-51712500I0J-237500D01*
G01*
X104275000Y-52287500D01*
G75*
G02*
X104037500Y-52525000I-237500J0D01*
G01*
G37*
G36*
G01*
X104037500Y-54275000D02*
X103562500Y-54275000D01*
G75*
G02*
X103325000Y-54037500I0J237500D01*
G01*
X103325000Y-53462500D01*
G75*
G02*
X103562500Y-53225000I237500J0D01*
G01*
X104037500Y-53225000D01*
G75*
G02*
X104275000Y-53462500I0J-237500D01*
G01*
X104275000Y-54037500D01*
G75*
G02*
X104037500Y-54275000I-237500J0D01*
G01*
G37*
%TD*%
%TO.C,R114*%
G36*
G01*
X102537500Y-54275000D02*
X102062500Y-54275000D01*
G75*
G02*
X101825000Y-54037500I0J237500D01*
G01*
X101825000Y-53462500D01*
G75*
G02*
X102062500Y-53225000I237500J0D01*
G01*
X102537500Y-53225000D01*
G75*
G02*
X102775000Y-53462500I0J-237500D01*
G01*
X102775000Y-54037500D01*
G75*
G02*
X102537500Y-54275000I-237500J0D01*
G01*
G37*
G36*
G01*
X102537500Y-52525000D02*
X102062500Y-52525000D01*
G75*
G02*
X101825000Y-52287500I0J237500D01*
G01*
X101825000Y-51712500D01*
G75*
G02*
X102062500Y-51475000I237500J0D01*
G01*
X102537500Y-51475000D01*
G75*
G02*
X102775000Y-51712500I0J-237500D01*
G01*
X102775000Y-52287500D01*
G75*
G02*
X102537500Y-52525000I-237500J0D01*
G01*
G37*
%TD*%
%TO.C,R134*%
G36*
G01*
X134557500Y-65495000D02*
X134082500Y-65495000D01*
G75*
G02*
X133845000Y-65257500I0J237500D01*
G01*
X133845000Y-64682500D01*
G75*
G02*
X134082500Y-64445000I237500J0D01*
G01*
X134557500Y-64445000D01*
G75*
G02*
X134795000Y-64682500I0J-237500D01*
G01*
X134795000Y-65257500D01*
G75*
G02*
X134557500Y-65495000I-237500J0D01*
G01*
G37*
G36*
G01*
X134557500Y-63745000D02*
X134082500Y-63745000D01*
G75*
G02*
X133845000Y-63507500I0J237500D01*
G01*
X133845000Y-62932500D01*
G75*
G02*
X134082500Y-62695000I237500J0D01*
G01*
X134557500Y-62695000D01*
G75*
G02*
X134795000Y-62932500I0J-237500D01*
G01*
X134795000Y-63507500D01*
G75*
G02*
X134557500Y-63745000I-237500J0D01*
G01*
G37*
%TD*%
%TO.C,R135*%
G36*
G01*
X131970000Y-58582500D02*
X131970000Y-59057500D01*
G75*
G02*
X131732500Y-59295000I-237500J0D01*
G01*
X131157500Y-59295000D01*
G75*
G02*
X130920000Y-59057500I0J237500D01*
G01*
X130920000Y-58582500D01*
G75*
G02*
X131157500Y-58345000I237500J0D01*
G01*
X131732500Y-58345000D01*
G75*
G02*
X131970000Y-58582500I0J-237500D01*
G01*
G37*
G36*
G01*
X133720000Y-58582500D02*
X133720000Y-59057500D01*
G75*
G02*
X133482500Y-59295000I-237500J0D01*
G01*
X132907500Y-59295000D01*
G75*
G02*
X132670000Y-59057500I0J237500D01*
G01*
X132670000Y-58582500D01*
G75*
G02*
X132907500Y-58345000I237500J0D01*
G01*
X133482500Y-58345000D01*
G75*
G02*
X133720000Y-58582500I0J-237500D01*
G01*
G37*
%TD*%
%TO.C,R136*%
G36*
G01*
X131657500Y-67600001D02*
X131182500Y-67600001D01*
G75*
G02*
X130945000Y-67362501I0J237500D01*
G01*
X130945000Y-66787501D01*
G75*
G02*
X131182500Y-66550001I237500J0D01*
G01*
X131657500Y-66550001D01*
G75*
G02*
X131895000Y-66787501I0J-237500D01*
G01*
X131895000Y-67362501D01*
G75*
G02*
X131657500Y-67600001I-237500J0D01*
G01*
G37*
G36*
G01*
X131657500Y-69350001D02*
X131182500Y-69350001D01*
G75*
G02*
X130945000Y-69112501I0J237500D01*
G01*
X130945000Y-68537501D01*
G75*
G02*
X131182500Y-68300001I237500J0D01*
G01*
X131657500Y-68300001D01*
G75*
G02*
X131895000Y-68537501I0J-237500D01*
G01*
X131895000Y-69112501D01*
G75*
G02*
X131657500Y-69350001I-237500J0D01*
G01*
G37*
%TD*%
%TO.C,R137*%
G36*
G01*
X125750001Y-68245834D02*
X125750001Y-68720834D01*
G75*
G02*
X125512501Y-68958334I-237500J0D01*
G01*
X124937501Y-68958334D01*
G75*
G02*
X124700001Y-68720834I0J237500D01*
G01*
X124700001Y-68245834D01*
G75*
G02*
X124937501Y-68008334I237500J0D01*
G01*
X125512501Y-68008334D01*
G75*
G02*
X125750001Y-68245834I0J-237500D01*
G01*
G37*
G36*
G01*
X124000001Y-68245834D02*
X124000001Y-68720834D01*
G75*
G02*
X123762501Y-68958334I-237500J0D01*
G01*
X123187501Y-68958334D01*
G75*
G02*
X122950001Y-68720834I0J237500D01*
G01*
X122950001Y-68245834D01*
G75*
G02*
X123187501Y-68008334I237500J0D01*
G01*
X123762501Y-68008334D01*
G75*
G02*
X124000001Y-68245834I0J-237500D01*
G01*
G37*
%TD*%
%TO.C,R138*%
G36*
G01*
X121695000Y-57657500D02*
X121695000Y-57182500D01*
G75*
G02*
X121932500Y-56945000I237500J0D01*
G01*
X122507500Y-56945000D01*
G75*
G02*
X122745000Y-57182500I0J-237500D01*
G01*
X122745000Y-57657500D01*
G75*
G02*
X122507500Y-57895000I-237500J0D01*
G01*
X121932500Y-57895000D01*
G75*
G02*
X121695000Y-57657500I0J237500D01*
G01*
G37*
G36*
G01*
X123445000Y-57657500D02*
X123445000Y-57182500D01*
G75*
G02*
X123682500Y-56945000I237500J0D01*
G01*
X124257500Y-56945000D01*
G75*
G02*
X124495000Y-57182500I0J-237500D01*
G01*
X124495000Y-57657500D01*
G75*
G02*
X124257500Y-57895000I-237500J0D01*
G01*
X123682500Y-57895000D01*
G75*
G02*
X123445000Y-57657500I0J237500D01*
G01*
G37*
%TD*%
%TO.C,R139*%
G36*
G01*
X123445000Y-56257500D02*
X123445000Y-55782500D01*
G75*
G02*
X123682500Y-55545000I237500J0D01*
G01*
X124257500Y-55545000D01*
G75*
G02*
X124495000Y-55782500I0J-237500D01*
G01*
X124495000Y-56257500D01*
G75*
G02*
X124257500Y-56495000I-237500J0D01*
G01*
X123682500Y-56495000D01*
G75*
G02*
X123445000Y-56257500I0J237500D01*
G01*
G37*
G36*
G01*
X121695000Y-56257500D02*
X121695000Y-55782500D01*
G75*
G02*
X121932500Y-55545000I237500J0D01*
G01*
X122507500Y-55545000D01*
G75*
G02*
X122745000Y-55782500I0J-237500D01*
G01*
X122745000Y-56257500D01*
G75*
G02*
X122507500Y-56495000I-237500J0D01*
G01*
X121932500Y-56495000D01*
G75*
G02*
X121695000Y-56257500I0J237500D01*
G01*
G37*
%TD*%
%TO.C,R140*%
G36*
G01*
X132682500Y-64445000D02*
X133157500Y-64445000D01*
G75*
G02*
X133395000Y-64682500I0J-237500D01*
G01*
X133395000Y-65257500D01*
G75*
G02*
X133157500Y-65495000I-237500J0D01*
G01*
X132682500Y-65495000D01*
G75*
G02*
X132445000Y-65257500I0J237500D01*
G01*
X132445000Y-64682500D01*
G75*
G02*
X132682500Y-64445000I237500J0D01*
G01*
G37*
G36*
G01*
X132682500Y-62695000D02*
X133157500Y-62695000D01*
G75*
G02*
X133395000Y-62932500I0J-237500D01*
G01*
X133395000Y-63507500D01*
G75*
G02*
X133157500Y-63745000I-237500J0D01*
G01*
X132682500Y-63745000D01*
G75*
G02*
X132445000Y-63507500I0J237500D01*
G01*
X132445000Y-62932500D01*
G75*
G02*
X132682500Y-62695000I237500J0D01*
G01*
G37*
%TD*%
%TO.C,R141*%
G36*
G01*
X131253925Y-62685000D02*
X131728925Y-62685000D01*
G75*
G02*
X131966425Y-62922500I0J-237500D01*
G01*
X131966425Y-63497500D01*
G75*
G02*
X131728925Y-63735000I-237500J0D01*
G01*
X131253925Y-63735000D01*
G75*
G02*
X131016425Y-63497500I0J237500D01*
G01*
X131016425Y-62922500D01*
G75*
G02*
X131253925Y-62685000I237500J0D01*
G01*
G37*
G36*
G01*
X131253925Y-64435000D02*
X131728925Y-64435000D01*
G75*
G02*
X131966425Y-64672500I0J-237500D01*
G01*
X131966425Y-65247500D01*
G75*
G02*
X131728925Y-65485000I-237500J0D01*
G01*
X131253925Y-65485000D01*
G75*
G02*
X131016425Y-65247500I0J237500D01*
G01*
X131016425Y-64672500D01*
G75*
G02*
X131253925Y-64435000I237500J0D01*
G01*
G37*
%TD*%
%TO.C,R142*%
G36*
G01*
X130895000Y-60457500D02*
X130895000Y-59982500D01*
G75*
G02*
X131132500Y-59745000I237500J0D01*
G01*
X131707500Y-59745000D01*
G75*
G02*
X131945000Y-59982500I0J-237500D01*
G01*
X131945000Y-60457500D01*
G75*
G02*
X131707500Y-60695000I-237500J0D01*
G01*
X131132500Y-60695000D01*
G75*
G02*
X130895000Y-60457500I0J237500D01*
G01*
G37*
G36*
G01*
X132645000Y-60457500D02*
X132645000Y-59982500D01*
G75*
G02*
X132882500Y-59745000I237500J0D01*
G01*
X133457500Y-59745000D01*
G75*
G02*
X133695000Y-59982500I0J-237500D01*
G01*
X133695000Y-60457500D01*
G75*
G02*
X133457500Y-60695000I-237500J0D01*
G01*
X132882500Y-60695000D01*
G75*
G02*
X132645000Y-60457500I0J237500D01*
G01*
G37*
%TD*%
%TO.C,R143*%
G36*
G01*
X132615833Y-66550001D02*
X133090833Y-66550001D01*
G75*
G02*
X133328333Y-66787501I0J-237500D01*
G01*
X133328333Y-67362501D01*
G75*
G02*
X133090833Y-67600001I-237500J0D01*
G01*
X132615833Y-67600001D01*
G75*
G02*
X132378333Y-67362501I0J237500D01*
G01*
X132378333Y-66787501D01*
G75*
G02*
X132615833Y-66550001I237500J0D01*
G01*
G37*
G36*
G01*
X132615833Y-68300001D02*
X133090833Y-68300001D01*
G75*
G02*
X133328333Y-68537501I0J-237500D01*
G01*
X133328333Y-69112501D01*
G75*
G02*
X133090833Y-69350001I-237500J0D01*
G01*
X132615833Y-69350001D01*
G75*
G02*
X132378333Y-69112501I0J237500D01*
G01*
X132378333Y-68537501D01*
G75*
G02*
X132615833Y-68300001I237500J0D01*
G01*
G37*
%TD*%
%TO.C,R144*%
G36*
G01*
X124700001Y-67287501D02*
X124700001Y-66812501D01*
G75*
G02*
X124937501Y-66575001I237500J0D01*
G01*
X125512501Y-66575001D01*
G75*
G02*
X125750001Y-66812501I0J-237500D01*
G01*
X125750001Y-67287501D01*
G75*
G02*
X125512501Y-67525001I-237500J0D01*
G01*
X124937501Y-67525001D01*
G75*
G02*
X124700001Y-67287501I0J237500D01*
G01*
G37*
G36*
G01*
X122950001Y-67287501D02*
X122950001Y-66812501D01*
G75*
G02*
X123187501Y-66575001I237500J0D01*
G01*
X123762501Y-66575001D01*
G75*
G02*
X124000001Y-66812501I0J-237500D01*
G01*
X124000001Y-67287501D01*
G75*
G02*
X123762501Y-67525001I-237500J0D01*
G01*
X123187501Y-67525001D01*
G75*
G02*
X122950001Y-67287501I0J237500D01*
G01*
G37*
%TD*%
D56*
%TO.C,T2*%
X41300000Y-75700000D03*
X39400000Y-75700000D03*
X40350000Y-77700000D03*
%TD*%
D55*
%TO.C,T3*%
X78800000Y-63450000D03*
X78800000Y-65350000D03*
X80800000Y-64400000D03*
%TD*%
%TO.C,T4*%
X83100000Y-68400000D03*
X81100000Y-69350000D03*
X81100000Y-67450000D03*
%TD*%
D11*
%TO.C,U17*%
G36*
X66600000Y-72275000D02*
G01*
X66600000Y-72525000D01*
X67100000Y-72525000D01*
X67100000Y-72775000D01*
X66600000Y-72775000D01*
X66600000Y-73225000D01*
X64200000Y-73225000D01*
X64200000Y-72775000D01*
X63700000Y-72775000D01*
X63700000Y-72525000D01*
X64200000Y-72525000D01*
X64200000Y-72275000D01*
X63700000Y-72275000D01*
X63700000Y-72025000D01*
X64200000Y-72025000D01*
X64200000Y-71575000D01*
X66600000Y-71575000D01*
X66600000Y-72025000D01*
X67100000Y-72025000D01*
X67100000Y-72275000D01*
X66600000Y-72275000D01*
G37*
D57*
X66400000Y-73800000D03*
X65900000Y-73800000D03*
X65400000Y-73800000D03*
X64900000Y-73800000D03*
X64400000Y-73800000D03*
X64400000Y-71000000D03*
X64900000Y-71000000D03*
X65400000Y-71000000D03*
X65900000Y-71000000D03*
X66400000Y-71000000D03*
%TD*%
%TO.C,U18*%
G36*
G01*
X46987500Y-63225000D02*
X47112500Y-63225000D01*
G75*
G02*
X47175000Y-63287500I0J-62500D01*
G01*
X47175000Y-63962500D01*
G75*
G02*
X47112500Y-64025000I-62500J0D01*
G01*
X46987500Y-64025000D01*
G75*
G02*
X46925000Y-63962500I0J62500D01*
G01*
X46925000Y-63287500D01*
G75*
G02*
X46987500Y-63225000I62500J0D01*
G01*
G37*
G36*
G01*
X46487500Y-63225000D02*
X46612500Y-63225000D01*
G75*
G02*
X46675000Y-63287500I0J-62500D01*
G01*
X46675000Y-63962500D01*
G75*
G02*
X46612500Y-64025000I-62500J0D01*
G01*
X46487500Y-64025000D01*
G75*
G02*
X46425000Y-63962500I0J62500D01*
G01*
X46425000Y-63287500D01*
G75*
G02*
X46487500Y-63225000I62500J0D01*
G01*
G37*
G36*
G01*
X45987500Y-63225000D02*
X46112500Y-63225000D01*
G75*
G02*
X46175000Y-63287500I0J-62500D01*
G01*
X46175000Y-63962500D01*
G75*
G02*
X46112500Y-64025000I-62500J0D01*
G01*
X45987500Y-64025000D01*
G75*
G02*
X45925000Y-63962500I0J62500D01*
G01*
X45925000Y-63287500D01*
G75*
G02*
X45987500Y-63225000I62500J0D01*
G01*
G37*
G36*
G01*
X45487500Y-63225000D02*
X45612500Y-63225000D01*
G75*
G02*
X45675000Y-63287500I0J-62500D01*
G01*
X45675000Y-63962500D01*
G75*
G02*
X45612500Y-64025000I-62500J0D01*
G01*
X45487500Y-64025000D01*
G75*
G02*
X45425000Y-63962500I0J62500D01*
G01*
X45425000Y-63287500D01*
G75*
G02*
X45487500Y-63225000I62500J0D01*
G01*
G37*
G36*
G01*
X44987500Y-63225000D02*
X45112500Y-63225000D01*
G75*
G02*
X45175000Y-63287500I0J-62500D01*
G01*
X45175000Y-63962500D01*
G75*
G02*
X45112500Y-64025000I-62500J0D01*
G01*
X44987500Y-64025000D01*
G75*
G02*
X44925000Y-63962500I0J62500D01*
G01*
X44925000Y-63287500D01*
G75*
G02*
X44987500Y-63225000I62500J0D01*
G01*
G37*
G36*
G01*
X44487500Y-63225000D02*
X44612500Y-63225000D01*
G75*
G02*
X44675000Y-63287500I0J-62500D01*
G01*
X44675000Y-63962500D01*
G75*
G02*
X44612500Y-64025000I-62500J0D01*
G01*
X44487500Y-64025000D01*
G75*
G02*
X44425000Y-63962500I0J62500D01*
G01*
X44425000Y-63287500D01*
G75*
G02*
X44487500Y-63225000I62500J0D01*
G01*
G37*
G36*
G01*
X43487500Y-64225000D02*
X44162500Y-64225000D01*
G75*
G02*
X44225000Y-64287500I0J-62500D01*
G01*
X44225000Y-64412500D01*
G75*
G02*
X44162500Y-64475000I-62500J0D01*
G01*
X43487500Y-64475000D01*
G75*
G02*
X43425000Y-64412500I0J62500D01*
G01*
X43425000Y-64287500D01*
G75*
G02*
X43487500Y-64225000I62500J0D01*
G01*
G37*
G36*
G01*
X43487500Y-64725000D02*
X44162500Y-64725000D01*
G75*
G02*
X44225000Y-64787500I0J-62500D01*
G01*
X44225000Y-64912500D01*
G75*
G02*
X44162500Y-64975000I-62500J0D01*
G01*
X43487500Y-64975000D01*
G75*
G02*
X43425000Y-64912500I0J62500D01*
G01*
X43425000Y-64787500D01*
G75*
G02*
X43487500Y-64725000I62500J0D01*
G01*
G37*
G36*
G01*
X43487500Y-65225000D02*
X44162500Y-65225000D01*
G75*
G02*
X44225000Y-65287500I0J-62500D01*
G01*
X44225000Y-65412500D01*
G75*
G02*
X44162500Y-65475000I-62500J0D01*
G01*
X43487500Y-65475000D01*
G75*
G02*
X43425000Y-65412500I0J62500D01*
G01*
X43425000Y-65287500D01*
G75*
G02*
X43487500Y-65225000I62500J0D01*
G01*
G37*
G36*
G01*
X43487500Y-65725000D02*
X44162500Y-65725000D01*
G75*
G02*
X44225000Y-65787500I0J-62500D01*
G01*
X44225000Y-65912500D01*
G75*
G02*
X44162500Y-65975000I-62500J0D01*
G01*
X43487500Y-65975000D01*
G75*
G02*
X43425000Y-65912500I0J62500D01*
G01*
X43425000Y-65787500D01*
G75*
G02*
X43487500Y-65725000I62500J0D01*
G01*
G37*
G36*
G01*
X43487500Y-66225000D02*
X44162500Y-66225000D01*
G75*
G02*
X44225000Y-66287500I0J-62500D01*
G01*
X44225000Y-66412500D01*
G75*
G02*
X44162500Y-66475000I-62500J0D01*
G01*
X43487500Y-66475000D01*
G75*
G02*
X43425000Y-66412500I0J62500D01*
G01*
X43425000Y-66287500D01*
G75*
G02*
X43487500Y-66225000I62500J0D01*
G01*
G37*
G36*
G01*
X43487500Y-66725000D02*
X44162500Y-66725000D01*
G75*
G02*
X44225000Y-66787500I0J-62500D01*
G01*
X44225000Y-66912500D01*
G75*
G02*
X44162500Y-66975000I-62500J0D01*
G01*
X43487500Y-66975000D01*
G75*
G02*
X43425000Y-66912500I0J62500D01*
G01*
X43425000Y-66787500D01*
G75*
G02*
X43487500Y-66725000I62500J0D01*
G01*
G37*
G36*
G01*
X44487500Y-67175000D02*
X44612500Y-67175000D01*
G75*
G02*
X44675000Y-67237500I0J-62500D01*
G01*
X44675000Y-67912500D01*
G75*
G02*
X44612500Y-67975000I-62500J0D01*
G01*
X44487500Y-67975000D01*
G75*
G02*
X44425000Y-67912500I0J62500D01*
G01*
X44425000Y-67237500D01*
G75*
G02*
X44487500Y-67175000I62500J0D01*
G01*
G37*
G36*
G01*
X44987500Y-67175000D02*
X45112500Y-67175000D01*
G75*
G02*
X45175000Y-67237500I0J-62500D01*
G01*
X45175000Y-67912500D01*
G75*
G02*
X45112500Y-67975000I-62500J0D01*
G01*
X44987500Y-67975000D01*
G75*
G02*
X44925000Y-67912500I0J62500D01*
G01*
X44925000Y-67237500D01*
G75*
G02*
X44987500Y-67175000I62500J0D01*
G01*
G37*
G36*
G01*
X45487500Y-67175000D02*
X45612500Y-67175000D01*
G75*
G02*
X45675000Y-67237500I0J-62500D01*
G01*
X45675000Y-67912500D01*
G75*
G02*
X45612500Y-67975000I-62500J0D01*
G01*
X45487500Y-67975000D01*
G75*
G02*
X45425000Y-67912500I0J62500D01*
G01*
X45425000Y-67237500D01*
G75*
G02*
X45487500Y-67175000I62500J0D01*
G01*
G37*
G36*
G01*
X45987500Y-67175000D02*
X46112500Y-67175000D01*
G75*
G02*
X46175000Y-67237500I0J-62500D01*
G01*
X46175000Y-67912500D01*
G75*
G02*
X46112500Y-67975000I-62500J0D01*
G01*
X45987500Y-67975000D01*
G75*
G02*
X45925000Y-67912500I0J62500D01*
G01*
X45925000Y-67237500D01*
G75*
G02*
X45987500Y-67175000I62500J0D01*
G01*
G37*
G36*
G01*
X46487500Y-67175000D02*
X46612500Y-67175000D01*
G75*
G02*
X46675000Y-67237500I0J-62500D01*
G01*
X46675000Y-67912500D01*
G75*
G02*
X46612500Y-67975000I-62500J0D01*
G01*
X46487500Y-67975000D01*
G75*
G02*
X46425000Y-67912500I0J62500D01*
G01*
X46425000Y-67237500D01*
G75*
G02*
X46487500Y-67175000I62500J0D01*
G01*
G37*
G36*
G01*
X46987500Y-67175000D02*
X47112500Y-67175000D01*
G75*
G02*
X47175000Y-67237500I0J-62500D01*
G01*
X47175000Y-67912500D01*
G75*
G02*
X47112500Y-67975000I-62500J0D01*
G01*
X46987500Y-67975000D01*
G75*
G02*
X46925000Y-67912500I0J62500D01*
G01*
X46925000Y-67237500D01*
G75*
G02*
X46987500Y-67175000I62500J0D01*
G01*
G37*
G36*
G01*
X47437500Y-66725000D02*
X48112500Y-66725000D01*
G75*
G02*
X48175000Y-66787500I0J-62500D01*
G01*
X48175000Y-66912500D01*
G75*
G02*
X48112500Y-66975000I-62500J0D01*
G01*
X47437500Y-66975000D01*
G75*
G02*
X47375000Y-66912500I0J62500D01*
G01*
X47375000Y-66787500D01*
G75*
G02*
X47437500Y-66725000I62500J0D01*
G01*
G37*
G36*
G01*
X47437500Y-66225000D02*
X48112500Y-66225000D01*
G75*
G02*
X48175000Y-66287500I0J-62500D01*
G01*
X48175000Y-66412500D01*
G75*
G02*
X48112500Y-66475000I-62500J0D01*
G01*
X47437500Y-66475000D01*
G75*
G02*
X47375000Y-66412500I0J62500D01*
G01*
X47375000Y-66287500D01*
G75*
G02*
X47437500Y-66225000I62500J0D01*
G01*
G37*
G36*
G01*
X47437500Y-65725000D02*
X48112500Y-65725000D01*
G75*
G02*
X48175000Y-65787500I0J-62500D01*
G01*
X48175000Y-65912500D01*
G75*
G02*
X48112500Y-65975000I-62500J0D01*
G01*
X47437500Y-65975000D01*
G75*
G02*
X47375000Y-65912500I0J62500D01*
G01*
X47375000Y-65787500D01*
G75*
G02*
X47437500Y-65725000I62500J0D01*
G01*
G37*
G36*
G01*
X47437500Y-65225000D02*
X48112500Y-65225000D01*
G75*
G02*
X48175000Y-65287500I0J-62500D01*
G01*
X48175000Y-65412500D01*
G75*
G02*
X48112500Y-65475000I-62500J0D01*
G01*
X47437500Y-65475000D01*
G75*
G02*
X47375000Y-65412500I0J62500D01*
G01*
X47375000Y-65287500D01*
G75*
G02*
X47437500Y-65225000I62500J0D01*
G01*
G37*
G36*
G01*
X47437500Y-64725000D02*
X48112500Y-64725000D01*
G75*
G02*
X48175000Y-64787500I0J-62500D01*
G01*
X48175000Y-64912500D01*
G75*
G02*
X48112500Y-64975000I-62500J0D01*
G01*
X47437500Y-64975000D01*
G75*
G02*
X47375000Y-64912500I0J62500D01*
G01*
X47375000Y-64787500D01*
G75*
G02*
X47437500Y-64725000I62500J0D01*
G01*
G37*
G36*
G01*
X47437500Y-64225000D02*
X48112500Y-64225000D01*
G75*
G02*
X48175000Y-64287500I0J-62500D01*
G01*
X48175000Y-64412500D01*
G75*
G02*
X48112500Y-64475000I-62500J0D01*
G01*
X47437500Y-64475000D01*
G75*
G02*
X47375000Y-64412500I0J62500D01*
G01*
X47375000Y-64287500D01*
G75*
G02*
X47437500Y-64225000I62500J0D01*
G01*
G37*
D58*
X45800000Y-65600000D03*
%TD*%
D57*
%TO.C,U19*%
X61700000Y-62600000D03*
X61200000Y-62600000D03*
X60700000Y-62600000D03*
X60200000Y-62600000D03*
X59700000Y-62600000D03*
X59700000Y-65400000D03*
X60200000Y-65400000D03*
X60700000Y-65400000D03*
X61200000Y-65400000D03*
X61700000Y-65400000D03*
D11*
G36*
X61900000Y-63875000D02*
G01*
X61900000Y-64125000D01*
X62400000Y-64125000D01*
X62400000Y-64375000D01*
X61900000Y-64375000D01*
X61900000Y-64825000D01*
X59500000Y-64825000D01*
X59500000Y-64375000D01*
X59000000Y-64375000D01*
X59000000Y-64125000D01*
X59500000Y-64125000D01*
X59500000Y-63875000D01*
X59000000Y-63875000D01*
X59000000Y-63625000D01*
X59500000Y-63625000D01*
X59500000Y-63175000D01*
X61900000Y-63175000D01*
X61900000Y-63625000D01*
X62400000Y-63625000D01*
X62400000Y-63875000D01*
X61900000Y-63875000D01*
G37*
%TD*%
D31*
%TO.C,U20*%
X79543332Y-71587500D03*
X79543332Y-72537500D03*
X79543332Y-73487500D03*
X81743332Y-73487500D03*
X81743332Y-71587500D03*
%TD*%
%TO.C,U22*%
X75600000Y-67500000D03*
X75600000Y-69400000D03*
X73400000Y-69400000D03*
X73400000Y-68450000D03*
X73400000Y-67500000D03*
%TD*%
D59*
%TO.C,U28*%
X92530000Y-52605000D03*
X92930000Y-52605000D03*
X93330000Y-52605000D03*
X93730000Y-52605000D03*
X94130000Y-52605000D03*
X94530000Y-52605000D03*
X94930000Y-52605000D03*
X95330000Y-52605000D03*
X95330000Y-51455000D03*
X94930000Y-51455000D03*
X94530000Y-51455000D03*
X94130000Y-51455000D03*
X93730000Y-51455000D03*
X93330000Y-51455000D03*
X92930000Y-51455000D03*
X92530000Y-51455000D03*
D60*
X93930000Y-52030000D03*
%TD*%
%TO.C,U32*%
G36*
G01*
X129570000Y-63645000D02*
X129870000Y-63645000D01*
G75*
G02*
X130020000Y-63795000I0J-150000D01*
G01*
X130020000Y-65445000D01*
G75*
G02*
X129870000Y-65595000I-150000J0D01*
G01*
X129570000Y-65595000D01*
G75*
G02*
X129420000Y-65445000I0J150000D01*
G01*
X129420000Y-63795000D01*
G75*
G02*
X129570000Y-63645000I150000J0D01*
G01*
G37*
G36*
G01*
X128300000Y-63645000D02*
X128600000Y-63645000D01*
G75*
G02*
X128750000Y-63795000I0J-150000D01*
G01*
X128750000Y-65445000D01*
G75*
G02*
X128600000Y-65595000I-150000J0D01*
G01*
X128300000Y-65595000D01*
G75*
G02*
X128150000Y-65445000I0J150000D01*
G01*
X128150000Y-63795000D01*
G75*
G02*
X128300000Y-63645000I150000J0D01*
G01*
G37*
G36*
G01*
X127030000Y-63645000D02*
X127330000Y-63645000D01*
G75*
G02*
X127480000Y-63795000I0J-150000D01*
G01*
X127480000Y-65445000D01*
G75*
G02*
X127330000Y-65595000I-150000J0D01*
G01*
X127030000Y-65595000D01*
G75*
G02*
X126880000Y-65445000I0J150000D01*
G01*
X126880000Y-63795000D01*
G75*
G02*
X127030000Y-63645000I150000J0D01*
G01*
G37*
G36*
G01*
X125760000Y-63645000D02*
X126060000Y-63645000D01*
G75*
G02*
X126210000Y-63795000I0J-150000D01*
G01*
X126210000Y-65445000D01*
G75*
G02*
X126060000Y-65595000I-150000J0D01*
G01*
X125760000Y-65595000D01*
G75*
G02*
X125610000Y-65445000I0J150000D01*
G01*
X125610000Y-63795000D01*
G75*
G02*
X125760000Y-63645000I150000J0D01*
G01*
G37*
G36*
G01*
X124490000Y-63645000D02*
X124790000Y-63645000D01*
G75*
G02*
X124940000Y-63795000I0J-150000D01*
G01*
X124940000Y-65445000D01*
G75*
G02*
X124790000Y-65595000I-150000J0D01*
G01*
X124490000Y-65595000D01*
G75*
G02*
X124340000Y-65445000I0J150000D01*
G01*
X124340000Y-63795000D01*
G75*
G02*
X124490000Y-63645000I150000J0D01*
G01*
G37*
G36*
G01*
X123220000Y-63645000D02*
X123520000Y-63645000D01*
G75*
G02*
X123670000Y-63795000I0J-150000D01*
G01*
X123670000Y-65445000D01*
G75*
G02*
X123520000Y-65595000I-150000J0D01*
G01*
X123220000Y-65595000D01*
G75*
G02*
X123070000Y-65445000I0J150000D01*
G01*
X123070000Y-63795000D01*
G75*
G02*
X123220000Y-63645000I150000J0D01*
G01*
G37*
G36*
G01*
X121950000Y-63645000D02*
X122250000Y-63645000D01*
G75*
G02*
X122400000Y-63795000I0J-150000D01*
G01*
X122400000Y-65445000D01*
G75*
G02*
X122250000Y-65595000I-150000J0D01*
G01*
X121950000Y-65595000D01*
G75*
G02*
X121800000Y-65445000I0J150000D01*
G01*
X121800000Y-63795000D01*
G75*
G02*
X121950000Y-63645000I150000J0D01*
G01*
G37*
G36*
G01*
X121950000Y-58695000D02*
X122250000Y-58695000D01*
G75*
G02*
X122400000Y-58845000I0J-150000D01*
G01*
X122400000Y-60495000D01*
G75*
G02*
X122250000Y-60645000I-150000J0D01*
G01*
X121950000Y-60645000D01*
G75*
G02*
X121800000Y-60495000I0J150000D01*
G01*
X121800000Y-58845000D01*
G75*
G02*
X121950000Y-58695000I150000J0D01*
G01*
G37*
G36*
G01*
X123220000Y-58695000D02*
X123520000Y-58695000D01*
G75*
G02*
X123670000Y-58845000I0J-150000D01*
G01*
X123670000Y-60495000D01*
G75*
G02*
X123520000Y-60645000I-150000J0D01*
G01*
X123220000Y-60645000D01*
G75*
G02*
X123070000Y-60495000I0J150000D01*
G01*
X123070000Y-58845000D01*
G75*
G02*
X123220000Y-58695000I150000J0D01*
G01*
G37*
G36*
G01*
X124490000Y-58695000D02*
X124790000Y-58695000D01*
G75*
G02*
X124940000Y-58845000I0J-150000D01*
G01*
X124940000Y-60495000D01*
G75*
G02*
X124790000Y-60645000I-150000J0D01*
G01*
X124490000Y-60645000D01*
G75*
G02*
X124340000Y-60495000I0J150000D01*
G01*
X124340000Y-58845000D01*
G75*
G02*
X124490000Y-58695000I150000J0D01*
G01*
G37*
G36*
G01*
X125760000Y-58695000D02*
X126060000Y-58695000D01*
G75*
G02*
X126210000Y-58845000I0J-150000D01*
G01*
X126210000Y-60495000D01*
G75*
G02*
X126060000Y-60645000I-150000J0D01*
G01*
X125760000Y-60645000D01*
G75*
G02*
X125610000Y-60495000I0J150000D01*
G01*
X125610000Y-58845000D01*
G75*
G02*
X125760000Y-58695000I150000J0D01*
G01*
G37*
G36*
G01*
X127030000Y-58695000D02*
X127330000Y-58695000D01*
G75*
G02*
X127480000Y-58845000I0J-150000D01*
G01*
X127480000Y-60495000D01*
G75*
G02*
X127330000Y-60645000I-150000J0D01*
G01*
X127030000Y-60645000D01*
G75*
G02*
X126880000Y-60495000I0J150000D01*
G01*
X126880000Y-58845000D01*
G75*
G02*
X127030000Y-58695000I150000J0D01*
G01*
G37*
G36*
G01*
X128300000Y-58695000D02*
X128600000Y-58695000D01*
G75*
G02*
X128750000Y-58845000I0J-150000D01*
G01*
X128750000Y-60495000D01*
G75*
G02*
X128600000Y-60645000I-150000J0D01*
G01*
X128300000Y-60645000D01*
G75*
G02*
X128150000Y-60495000I0J150000D01*
G01*
X128150000Y-58845000D01*
G75*
G02*
X128300000Y-58695000I150000J0D01*
G01*
G37*
G36*
G01*
X129570000Y-58695000D02*
X129870000Y-58695000D01*
G75*
G02*
X130020000Y-58845000I0J-150000D01*
G01*
X130020000Y-60495000D01*
G75*
G02*
X129870000Y-60645000I-150000J0D01*
G01*
X129570000Y-60645000D01*
G75*
G02*
X129420000Y-60495000I0J150000D01*
G01*
X129420000Y-58845000D01*
G75*
G02*
X129570000Y-58695000I150000J0D01*
G01*
G37*
%TD*%
M02*
