M48
; DRILL file {KiCad (5.1.7)-1} date 11/26/20 18:08:14
; FORMAT={-:-/ absolute / inch / decimal}
; #@! TF.CreationDate,2020-11-26T18:08:14+01:00
; #@! TF.GenerationSoftware,Kicad,Pcbnew,(5.1.7)-1
; #@! TF.FileFunction,Plated,1,4,PTH
FMAT,2
INCH
T1C0.0079
T2C0.0118
T3C0.0157
T4C0.0236
T5C0.0315
T6C0.0354
T7C0.0390
T8C0.0394
T9C0.0402
T10C0.0512
T11C0.0630
%
G90
G05
T1
X2.5374Y-2.8504
X2.5748Y-2.8278
X2.5748Y-2.873
X2.6122Y-2.8504
X2.3524Y-2.5197
X2.3898Y-2.497
X2.3898Y-2.5423
X2.4272Y-2.5197
T2
X1.3394Y-1.3276
X1.3394Y-1.4496
X1.3394Y-1.6071
X1.3394Y-1.7646
X1.3394Y-1.922
X1.3394Y-2.0795
X1.3394Y-2.237
X1.3394Y-2.3945
X1.3394Y-2.552
X1.3394Y-2.7094
X1.3394Y-2.8669
X1.3394Y-3.0244
X1.3394Y-3.1819
X1.3394Y-3.3394
X1.3394Y-3.4969
X1.3394Y-3.6543
X1.3394Y-3.8118
X1.3984Y-1.2764
X1.4417Y-1.7016
X1.4496Y-3.3236
X1.4614Y-3.8276
X1.4693Y-1.3748
X1.4882Y-2.0236
X1.4882Y-2.0949
X1.5039Y-2.4173
X1.5039Y-2.4567
X1.5039Y-2.7795
X1.5039Y-2.8228
X1.5118Y-1.8307
X1.5138Y-3.715
X1.5248Y-2.0122
X1.5323Y-1.2764
X1.5402Y-1.4693
X1.5402Y-3.0606
X1.5441Y-3.2606
X1.5441Y-3.3984
X1.548Y-2.111
X1.5512Y-2.2244
X1.563Y-1.8307
X1.5756Y-1.6386
X1.5866Y-2.2244
X1.587Y-2.5264
X1.615Y-1.3748
X1.6189Y-3.8276
X1.6693Y-2.5661
X1.6701Y-2.1031
X1.6701Y-2.6366
X1.6756Y-2.9374
X1.678Y-3.5874
X1.6799Y-1.7209
X1.6898Y-1.2764
X1.6992Y-3.0299
X1.7063Y-2.424
X1.7087Y-2.4965
X1.7114Y-3.7598
X1.7173Y-2.3512
X1.7291Y-2.1031
X1.7685Y-1.3748
X1.7717Y-3.5835
X1.7724Y-1.5323
X1.7764Y-3.8276
X1.7795Y-2.5591
X1.7795Y-2.6063
X1.7843Y-2.1031
X1.7913Y-3.1382
X1.8031Y-2.5827
X1.8071Y-1.9803
X1.8106Y-2.4638
X1.811Y-2.2992
X1.8268Y-2.5591
X1.8268Y-2.6063
X1.8472Y-1.2764
X1.8472Y-3.4102
X1.8504Y-1.9803
X1.8516Y-2.0626
X1.8591Y-2.2961
X1.8862Y-3.3161
X1.8972Y-2.4984
X1.9173Y-2.7205
X1.9181Y-2.8079
X1.9181Y-2.8433
X1.9181Y-2.8787
X1.9181Y-2.9142
X1.926Y-3.4102
X1.9323Y-3.05
X1.9339Y-3.8276
X1.9429Y-3.1835
X1.9457Y-1.5323
X1.9465Y-3.1366
X1.9594Y-2.5248
X1.9732Y-3.1622
X2.0008Y-3.4102
X2.0047Y-1.2764
X2.0134Y-2.3091
X2.0138Y-3.0909
X2.015Y-3.0469
X2.0157Y-1.626
X2.0157Y-1.6732
X2.0157Y-1.7205
X2.0197Y-3.5504
X2.022Y-3.628
X2.0362Y-1.4063
X2.0437Y-3.1252
X2.0543Y-3.2154
X2.0551Y-1.6457
X2.0602Y-3.0476
X2.0638Y-3.4732
X2.0677Y-1.5323
X2.0913Y-3.8276
X2.1059Y-3.0469
X2.1063Y-1.6457
X2.126Y-2.0992
X2.1386Y-1.5717
X2.1425Y-2.6256
X2.1429Y-2.528
X2.1429Y-2.5752
X2.1543Y-1.9417
X2.1614Y-1.6457
X2.1622Y-1.2764
X2.1622Y-1.7969
X2.1701Y-2.0205
X2.178Y-3.4732
X2.1898Y-1.422
X2.2102Y-2.3232
X2.2126Y-1.6457
X2.2193Y-3.0988
X2.2205Y-2.0315
X2.2283Y-2.4
X2.2362Y-2.6024
X2.2472Y-3.1492
X2.2488Y-3.8276
X2.2567Y-3.0047
X2.2598Y-2.9449
X2.2717Y-2.0315
X2.272Y-2.3228
X2.2913Y-2.6024
X2.2929Y-2.6539
X2.302Y-2.2925
X2.3031Y-2.9449
X2.3197Y-1.2764
X2.3315Y-3.0047
X2.3315Y-3.4024
X2.3346Y-2.7598
X2.3354Y-1.4654
X2.3354Y-3.7134
X2.3425Y-1.6811
X2.3512Y-1.3551
X2.3592Y-2.2592
X2.3748Y-2.9449
X2.3827Y-2.8591
X2.3898Y-1.6811
X2.3945Y-3.4732
X2.3984Y-3.1661
X2.4063Y-1.4654
X2.4063Y-3.8276
X2.422Y-3.0087
X2.4259Y-2.2601
X2.4343Y-1.6807
X2.4417Y-1.3551
X2.4457Y-2.9457
X2.4528Y-2.7559
X2.4614Y-2.4606
X2.4654Y-3.4024
X2.4764Y-2.5394
X2.4764Y-2.5787
X2.4772Y-1.2764
X2.4803Y-2.0315
X2.4811Y-3.5717
X2.4921Y-2.4606
X2.4929Y-3.7134
X2.4972Y-2.6114
X2.5008Y-1.4693
X2.5047Y-2.9457
X2.5165Y-3.0087
X2.5177Y-2.1622
X2.5283Y-3.1661
X2.5315Y-2.0315
X2.5323Y-1.3551
X2.5323Y-3.4772
X2.5559Y-3.0386
X2.5638Y-1.4693
X2.5638Y-3.8276
X2.5669Y-1.6339
X2.5669Y-1.7126
X2.5677Y-2.1031
X2.5681Y-1.6728
X2.5835Y-2.9732
X2.5913Y-3.4024
X2.6142Y-2.9461
X2.6228Y-2.0677
X2.6461Y-3.5142
X2.6461Y-3.5756
X2.6465Y-3.5453
X2.6465Y-3.7134
X2.6504Y-1.7094
X2.6575Y-1.5591
X2.6575Y-1.6339
X2.6614Y-2.9016
X2.6654Y-2.9449
X2.6661Y-3.1661
X2.6681Y-2.3567
X2.6701Y-2.489
X2.6701Y-2.5283
X2.6858Y-2.1031
X2.689Y-1.7874
X2.6898Y-1.7213
X2.6929Y-2.7559
X2.6976Y-3.4063
X2.7165Y-2.9449
X2.7213Y-3.8276
X2.7291Y-1.7213
X2.7323Y-1.6299
X2.7323Y-2.7559
X2.7382Y-2.9969
X2.7421Y-1.3622
X2.7555Y-2.5425
X2.765Y-1.9374
X2.7717Y-2.9449
X2.7803Y-1.2724
X2.7953Y-2.2394
X2.8Y-3.5638
X2.8Y-3.7094
X2.8161Y-1.8626
X2.8201Y-1.7878
X2.8201Y-1.8232
X2.8228Y-2.9449
X2.8236Y-2.2398
X2.8236Y-3.1701
X2.828Y-1.965
X2.8346Y-2.4902
X2.8362Y-2.4594
X2.8417Y-2.5634
X2.8417Y-2.6386
X2.8551Y-2.7724
X2.8551Y-3.4063
X2.8555Y-1.2866
X2.8555Y-1.328
X2.8555Y-1.5535
X2.8555Y-1.6146
X2.8555Y-1.8783
X2.8563Y-1.8118
X2.8591Y-1.3787
X2.8594Y-1.4413
X2.8787Y-3.8276
X2.8898Y-2.7717
X2.8949Y-1.6461
X2.8949Y-1.7012
X2.9102Y-2.9732
X2.9146Y-1.5437
X2.9224Y-2.7717
X2.926Y-2.2736
X2.9295Y-1.7354
X2.9339Y-1.2724
X2.9457Y-3.4732
X2.9472Y-2.4524
X2.9614Y-3.7055
X2.9693Y-3.1701
X2.978Y-1.611
X2.9819Y-1.3638
X2.9906Y-2.0638
X3.015Y-2.9248
X3.0346Y-2.0646
X3.0362Y-3.8276
X3.0386Y-2.9496
X3.0437Y-2.2252
X3.0559Y-3.4063
X3.0677Y-1.363
X3.0677Y-1.422
X3.0677Y-1.4732
X3.0744Y-2.0642
X3.0827Y-2.3898
X3.0862Y-3.1272
X3.1197Y-2.4315
X3.1252Y-2.2173
X3.1256Y-3.1256
X3.1343Y-3.0539
X3.135Y-1.7091
X3.1366Y-2.0421
X3.1382Y-1.6772
X3.1409Y-2.3894
X3.1417Y-2.9496
X3.1445Y-3.2819
X3.1504Y-2.2409
X3.1661Y-3.4886
X3.1705Y-1.8874
X3.1705Y-2.0421
X3.1756Y-2.9008
X3.1823Y-3.2839
X3.1882Y-3.4453
X3.1937Y-3.8276
X3.1965Y-3.0839
X3.2051Y-1.672
X3.2059Y-2.7871
X3.2087Y-1.5
X3.2154Y-3.3047
X3.2331Y-1.4535
X3.237Y-3.1189
X3.2528Y-2.4012
X3.2528Y-3.2567
X3.2661Y-1.6606
X3.2685Y-1.4969
X3.2693Y-2.3157
X3.2693Y-2.3528
X3.2752Y-3.0799
X3.2764Y-3.4102
X3.2764Y-3.4811
X3.2882Y-1.4575
X3.2902Y-2.2752
X3.3Y-3.1189
X3.3004Y-2.0831
X3.3063Y-2.3799
X3.3157Y-3.2567
X3.3161Y-3.3024
X3.3169Y-2.298
X3.3169Y-3.0441
X3.3236Y-1.4969
X3.3248Y-2.1634
X3.3315Y-2.4079
X3.3354Y-1.8669
X3.3374Y-2.4862
X3.3386Y-2.5157
X3.3433Y-3.4102
X3.3433Y-3.4811
X3.3504Y-2.4358
X3.3512Y-3.8276
X3.3539Y-3.1193
X3.361Y-1.9232
X3.3614Y-1.8902
X3.365Y-1.6697
X3.3661Y-2.4858
X3.3661Y-2.5157
X3.3673Y-2.9268
X3.3823Y-2.7528
X3.3843Y-3.2819
X3.3898Y-1.8614
X3.3898Y-2.0154
X3.3902Y-3.2075
X3.3937Y-2.1236
X3.3945Y-3.363
X3.3984Y-2.9268
X3.3992Y-2.4961
X3.4024Y-3.5362
X3.4134Y-1.9685
X3.4197Y-2.3047
X3.4201Y-2.4744
X3.426Y-3.7409
X3.4409Y-1.9406
X3.4409Y-2.1571
X3.4409Y-2.3272
X3.4425Y-3.4657
X3.45Y-2.4748
X3.4535Y-3.6031
X3.4579Y-2.0181
X3.4602Y-3.0524
X3.4654Y-3.4961
X3.4661Y-3.0004
X3.4693Y-2.961
X3.4697Y-2.6087
X3.4724Y-1.9209
X3.4803Y-2.4744
X3.4807Y-2.3264
X3.4815Y-1.9972
X3.4906Y-3.1508
X3.4917Y-3.285
X3.5028Y-2.9504
X3.5047Y-1.2764
X3.5047Y-1.3354
X3.5079Y-2.3126
X3.5087Y-3.8276
X3.5106Y-2.4736
X3.5157Y-1.9169
X3.5232Y-2.613
X3.5236Y-2.5024
X3.535Y-2.2976
X3.5362Y-2.3283
X3.5449Y-2.5858
X3.5551Y-1.9051
X3.5563Y-2.5039
X3.5606Y-2.65
X3.5638Y-3.6031
X3.5693Y-1.7122
X3.5701Y-1.7425
X3.5709Y-1.7744
X3.5744Y-2.9343
X3.5815Y-2.628
X3.5835Y-2.3866
X3.5874Y-3.7449
X3.5913Y-2.5043
X3.5921Y-2.5354
X3.598Y-2.9539
X3.5984Y-1.6909
X3.6047Y-2.565
X3.6071Y-2.3433
X3.6102Y-2.0177
X3.611Y-2.3
X3.6228Y-2.9323
X3.6228Y-3.1425
X3.6232Y-2.5346
X3.6346Y-2.5638
X3.6445Y-2.3894
X3.6583Y-1.6906
X3.6583Y-2.3
X3.6587Y-2.1232
X3.6661Y-3.1425
X3.6661Y-3.8276
X3.6898Y-3.6031
X3.6925Y-1.7921
X3.7039Y-2.4575
X3.7059Y-2.1587
X3.7094Y-3.1268
X3.7098Y-2.1272
X3.7157Y-2.3835
X3.737Y-1.2764
X3.7374Y-2.1508
X3.7374Y-2.5319
X3.7374Y-2.5634
X3.7374Y-2.5949
X3.7406Y-2.4043
X3.7449Y-3.7449
X3.7543Y-1.7646
X3.7547Y-1.828
X3.7602Y-1.4858
X3.7606Y-1.7173
X3.7606Y-3.0756
X3.7606Y-3.1268
X3.7622Y-3.0063
X3.765Y-2.1272
X3.7654Y-2.2224
X3.7685Y-2.926
X3.7685Y-2.9654
X3.7724Y-1.5638
X3.7913Y-2.8232
X3.798Y-2.052
X3.7988Y-2.0181
X3.8Y-2.1665
X3.8039Y-3.1268
X3.8091Y-1.4862
X3.8197Y-1.3276
X3.8236Y-1.5323
X3.8236Y-3.8276
X3.8248Y-3.4394
X3.8472Y-3.6031
X3.8543Y-3.2945
X3.8551Y-2.7213
X3.8626Y-1.9343
X3.8638Y-2.5984
X3.8646Y-2.5618
X3.8732Y-2.3815
X3.8736Y-2.7457
X3.8787Y-1.4772
X3.8787Y-1.5638
X3.8945Y-1.2764
X3.8945Y-3.1465
X3.9024Y-2.9929
X3.9024Y-3.737
X3.9031Y-2.5839
X3.915Y-1.8012
X3.922Y-2.6661
X3.9535Y-2.9378
X3.9567Y-3.552
X3.9646Y-2.437
X3.9732Y-1.8315
X3.9811Y-3.8276
X3.9929Y-3.6031
X3.9969Y-3.0126
X3.9969Y-3.1465
X4.0Y-2.4374
X4.0283Y-1.674
X4.0323Y-1.5165
X4.052Y-1.2764
X4.0559Y-1.8315
X4.0677Y-3.7409
X4.0862Y-2.1575
X4.0941Y-2.6154
X4.1012Y-2.7795
X4.1031Y-1.9299
X4.111Y-3.0126
X4.111Y-3.1465
X4.111Y-3.6031
X4.1177Y-2.6469
X4.1189Y-1.5953
X4.1228Y-1.989
X4.1386Y-3.8276
X4.1453Y-2.6154
X4.1504Y-3.5126
X4.1728Y-2.6469
X4.174Y-1.3512
X4.1819Y-1.7252
X4.1819Y-1.8315
X4.1858Y-1.9378
X4.1965Y-2.6154
X4.1976Y-1.5165
X4.2043Y-3.4626
X4.2055Y-3.2764
X4.2055Y-3.3394
X4.2055Y-3.4051
X4.2094Y-1.2764
X4.2134Y-2.0244
X4.2134Y-2.0874
X4.2134Y-2.1583
X4.2173Y-2.4417
X4.2173Y-2.489
X4.2173Y-3.737
X4.2291Y-3.0126
X4.2331Y-3.552
X4.237Y-3.1465
X4.2567Y-3.6701
X4.2803Y-2.2843
X4.2803Y-2.3787
X4.2843Y-2.0441
X4.2843Y-2.1976
X4.2898Y-2.5949
X4.2921Y-1.4496
X4.2961Y-3.8276
X4.3102Y-2.5728
X4.3118Y-1.8906
X4.313Y-2.6161
X4.3157Y-3.5638
X4.3157Y-3.5953
X4.3276Y-3.7331
X4.3394Y-1.8354
X4.3406Y-2.6697
X4.3669Y-1.2764
X4.3787Y-2.6701
X4.3921Y-2.9
X4.3933Y-2.6236
X4.4122Y-1.7543
X4.4224Y-2.6728
X4.4484Y-2.4492
X4.4535Y-3.8276
X4.4787Y-2.261
X4.4807Y-2.6579
X4.489Y-1.4457
X4.489Y-1.5677
X4.4929Y-3.237
X4.4929Y-3.3079
X4.4929Y-3.4024
X4.4929Y-3.4535
X4.4929Y-3.5087
X4.4929Y-3.5953
X4.4929Y-3.6622
X4.4929Y-3.7409
X4.4972Y-1.9866
X4.5047Y-2.8827
X4.5075Y-2.5051
X4.5075Y-2.5469
X4.5244Y-1.2764
X4.5283Y-1.8709
X4.5362Y-2.9102
X4.5364Y-2.6852
X4.5535Y-2.5461
X4.5559Y-2.5063
X4.5835Y-1.5047
X4.5843Y-2.6807
X4.6004Y-2.85
X4.6031Y-2.9772
X4.611Y-3.8276
X4.6213Y-2.4484
X4.6228Y-3.237
X4.6268Y-2.6228
X4.6268Y-3.5126
X4.6268Y-3.6583
X4.6378Y-3.374
X4.6567Y-2.8535
X4.6626Y-2.1701
X4.6701Y-3.0441
X4.674Y-1.5717
X4.678Y-1.4457
X4.6819Y-1.2764
X4.6819Y-2.6228
X4.6858Y-3.8315
X4.713Y-2.25
X4.7134Y-1.7528
X4.7134Y-2.6858
X4.7157Y-2.8516
X4.7291Y-2.9142
X4.7291Y-3.6661
X4.7413Y-3.5382
X4.7531Y-2.2016
X4.7685Y-2.6858
X4.7685Y-3.8276
X4.7764Y-3.2331
X4.7858Y-1.978
X4.8039Y-1.8551
X4.8039Y-3.0441
X4.8114Y-2.0339
X4.8122Y-2.8736
X4.8157Y-3.8276
X4.8189Y-1.9764
X4.8236Y-1.7921
X4.8394Y-1.2764
X4.8433Y-3.7961
X4.8472Y-2.9732
X4.8472Y-3.6976
X4.8472Y-3.7488
X4.8512Y-1.8984
X4.8512Y-2.0008
X4.8748Y-3.6504
X4.8902Y-2.8311
X4.8906Y-1.4457
X4.9114Y-2.8602
X4.922Y-2.926
X4.926Y-3.048
X4.9299Y-3.2331
X4.9299Y-3.6228
X4.9327Y-1.7567
X4.9366Y-1.3437
X4.9457Y-1.5598
X4.9524Y-2.2795
X4.9685Y-2.4287
X4.9772Y-3.4142
X4.9772Y-3.5008
X4.989Y-1.674
X4.9969Y-1.2764
X4.9969Y-2.278
X5.0047Y-3.6228
X5.0224Y-2.8114
X5.0228Y-2.4654
X5.0283Y-3.2606
X5.0402Y-1.7528
X5.0402Y-1.8394
X5.0835Y-3.6228
X5.0953Y-3.4063
X5.0992Y-1.6819
X5.148Y-3.4055
X5.1512Y-1.3114
X5.1543Y-1.2764
X5.1547Y-1.4303
X5.1583Y-3.6228
X5.1622Y-3.3157
X5.1661Y-1.5126
X5.1709Y-3.3799
X5.178Y-3.548
X5.1898Y-3.0795
X5.2094Y-1.5677
X5.2094Y-1.6386
X5.2094Y-1.7213
X5.2134Y-1.3453
X5.2134Y-1.8354
X5.215Y-1.9146
X5.2173Y-2.8906
X5.2299Y-2.7559
X5.2331Y-1.4575
X5.2516Y-3.1783
X5.2528Y-2.9654
X5.2591Y-2.4307
X5.2642Y-2.0717
X5.2858Y-3.1795
X5.2976Y-2.3701
X5.3039Y-2.422
X5.3039Y-2.8197
X5.3039Y-3.0087
X5.3039Y-3.0992
X5.3079Y-1.8945
X5.3079Y-1.9772
X5.3079Y-2.0638
X5.3079Y-2.1622
X5.3118Y-1.2764
X5.3236Y-1.4575
X5.3394Y-2.5402
X5.3787Y-2.9457
X5.3906Y-1.5677
X5.3906Y-2.0205
X5.3945Y-2.1929
X5.4098Y-3.2933
X5.4134Y-1.3587
X5.4181Y-2.5598
X5.424Y-1.4382
X5.426Y-2.8197
X5.4417Y-3.111
X5.4614Y-1.3189
X5.4693Y-1.2764
X5.4693Y-1.4575
X5.5087Y-1.5677
X5.5346Y-3.2843
X5.5362Y-1.4575
X5.5886Y-1.4488
X5.626Y-3.4843
X5.626Y-3.628
X5.6268Y-1.2764
X5.6268Y-1.5677
X5.6268Y-1.7055
X5.6268Y-1.863
X5.6268Y-2.0205
X5.6268Y-2.178
X5.6268Y-2.3354
X5.6268Y-2.4929
X5.6268Y-2.6504
X5.6268Y-2.8079
X5.6268Y-2.9654
X5.6268Y-3.1228
X5.6268Y-3.2803
X5.6268Y-3.3591
X5.6268Y-3.4378
X5.6276Y-3.5331
X5.6307Y-3.5795
T3
X2.3307Y-1.5386
X2.3465Y-1.511
X2.3622Y-1.5386
X2.378Y-1.511
X2.3937Y-1.5386
X2.4094Y-1.511
X2.4252Y-1.5386
X2.4567Y-1.5386
X2.4724Y-1.511
X2.4882Y-1.5386
X2.5039Y-1.511
X2.5197Y-1.5386
X2.5354Y-1.511
X2.5512Y-1.5386
T6
X4.3976Y-1.9173
X4.4476Y-1.8173
X4.4976Y-1.9173
X4.5476Y-1.8173
X4.5976Y-1.9173
X4.6476Y-1.8173
X4.6976Y-1.9173
X4.7476Y-1.8173
X5.0917Y-2.8906
X5.0917Y-3.0874
T7
X3.185Y-1.3504
X3.3622Y-1.3504
T8
X1.4173Y-1.8819
X1.4173Y-1.9819
X1.4173Y-2.0819
X1.4173Y-2.1819
X1.4173Y-2.2819
X1.4173Y-2.3819
X1.4173Y-2.4819
X1.4173Y-2.5819
X1.4173Y-2.6819
X1.4173Y-2.7819
X1.4173Y-2.8819
X1.4173Y-2.9819
X1.4173Y-3.0819
X1.4173Y-3.1819
T9
X4.3575Y-2.1075
X4.4575Y-2.1075
X4.6878Y-2.1075
X4.7878Y-2.1075
T10
X3.1358Y-1.4484
X3.4118Y-1.4484
T11
X5.4882Y-1.6693
X5.4882Y-1.8071
X5.4882Y-1.9449
X5.4882Y-2.0827
X5.4882Y-2.2205
X5.4882Y-2.3583
X5.4882Y-2.4961
X5.4882Y-2.6339
X5.4882Y-2.7717
X5.4882Y-2.9094
X5.4882Y-3.0472
X5.4882Y-3.185
X4.2616Y-1.6874
X4.8837Y-1.6874
T4
G00X2.2728Y-1.3189
M15
G01X2.2728Y-1.2953
M16
G05
G00X2.2728Y-1.5051
M15
G01X2.2728Y-1.4815
M16
G05
G00X2.6091Y-1.3189
M15
G01X2.6091Y-1.2953
M16
G05
G00X2.6091Y-1.5051
M15
G01X2.6091Y-1.4815
M16
G05
T5
G00X1.6811Y-1.5039
M15
G01X1.6811Y-1.5906
M16
G05
G00X1.9134Y-1.437
M15
G01X1.8268Y-1.437
M16
G05
G00X1.9213Y-1.6654
M15
G01X1.8189Y-1.6654
M16
G05
T0
M30
